<?xml version="1.0" encoding="UTF-8" standalone="no"?>
<svg
   xmlns:dc="http://purl.org/dc/elements/1.1/"
   xmlns:cc="http://creativecommons.org/ns#"
   xmlns:rdf="http://www.w3.org/1999/02/22-rdf-syntax-ns#"
   xmlns:svg="http://www.w3.org/2000/svg"
   xmlns="http://www.w3.org/2000/svg"
   id="svg64"
   height="900.33301"
   width="1380"
   version="1.1">
  <metadata
     id="metadata68">
    <rdf:RDF>
      <cc:Work
         rdf:about="">
        <dc:format>image/svg+xml</dc:format>
        <dc:type
           rdf:resource="http://purl.org/dc/dcmitype/StillImage" />
        <dc:title></dc:title>
      </cc:Work>
    </rdf:RDF>
  </metadata>
  <defs
     id="defs8">
    <rect
       id="rect958"
       height="65.225471"
       width="22.313976"
       y="927.56305"
       x="128.86591" />
    <rect
       id="rect946"
       height="648.82178"
       width="914.87305"
       y="124.25986"
       x="-11.883802" />
    <clipPath
       clip-rule="nonzero"
       clipPathUnits="userSpaceOnUse"
       id="clip_dp_001">
      <path
         id="path2"
         clip-rule="nonzero"
         d="M 103.119,139.708 H 1483.62 V 1025.39 H 103.119 Z" />
    </clipPath>
    <clipPath
       clip-rule="nonzero"
       clipPathUnits="userSpaceOnUse"
       id="clip_dp_002">
      <path
         id="path5"
         clip-rule="nonzero"
         d="m 839.196,408.421 c 0,-118.028 95.685,-213.709 213.714,-213.709 118.04,0 213.72,95.681 213.72,213.709 0,118.028 -95.68,213.71 -213.72,213.71 -118.029,0 -213.714,-95.682 -213.714,-213.71 z" />
    </clipPath>
    <rect
       x="-11.883802"
       y="124.25986"
       width="914.87305"
       height="648.82178"
       id="rect946-3" />
    <rect
       x="-11.883802"
       y="124.25986"
       width="914.87305"
       height="648.82178"
       id="rect971" />
  </defs>
  <g
     clip-path="url(#clip_dp_001)"
     transform="translate(-103.119,-139.708)"
     id="dp_dp001">
    <path
       style="stroke-width:6.667;stroke-linecap:round;stroke-miterlimit:4;stroke-dasharray:none"
       id="dp_path002"
       fill="#f69026"
       fill-rule="evenodd"
       stroke="#000000"
       stroke-width="6.66667"
       d="m 602.629,172.892 c -0.992,0.424 -4.545,0.772 -7.896,0.772 -16.394,0 -32.816,2.923 -48.75,6.597 -4.724,1.09 -9.631,2.362 -13.746,5.032 -4.034,2.62 -8.736,4.304 -13.134,6.222 l -1.851,1.505 c -1.365,1.109 -2.693,1.793 -4.331,2.357 l -1.464,1.466 c -1.412,1.41 -2.962,2.586 -4.554,3.781 -13.506,10.803 -24.263,24.675 -35.236,37.939 -1.26,1.521 -2.439,3.09 -3.559,4.716 -0.976,1.233 -1.952,2.468 -2.928,3.701 -0.813,1.199 -1.627,2.399 -2.44,3.597 -0.623,0.919 -1.269,1.814 -1.931,2.704 -2.309,3.107 -4.38,6.398 -6.528,9.618 -0.709,1.064 -1.434,2.116 -2.162,3.168 -0.634,1.698 -1.354,3.13 -2.514,4.558 -1.172,1.44 -1.598,2.126 -1.932,3.091 -0.897,2.607 -2.761,5.004 -4.209,7.339 l -2.664,4.596 c -4.603,7.941 -8.091,16.784 -11.711,25.23 -1.054,2.462 -2.214,4.855 -3.396,7.259 -0.605,2.253 -1.354,4.231 -2.358,6.353 -1.43,3.023 -2.246,6.03 -3.09,9.272 -1.498,5.754 -3.52,11.262 -5.368,16.904 -0.624,4.516 -1.696,8.798 -3.09,13.135 -0.859,5.52 -1.718,11.041 -2.575,16.561 -0.544,6.742 -1.085,13.484 -1.629,20.226 l -0.216,0.109 -0.216,0.108 v 12.361 c 1.2,2.799 0.772,6.364 0.772,9.352 0.792,6.338 1.594,12.639 2.704,18.928 1.264,7.16 3.104,14.152 4.677,21.247 1.303,5.879 2.981,11.779 6.14,16.917 1.148,1.866 2.292,4.183 3.011,6.1 3.27,8.722 7.648,17.199 12.442,25.19 1.002,1.669 1.898,3.372 2.786,5.102 1.233,1.235 2.466,2.468 3.701,3.702 1.433,2.73 3.224,5.293 5.063,7.766 0.614,0.828 1.289,2.004 1.5,2.614 0.857,2.493 3.39,4.64 5.026,6.617 7.824,9.78 16.808,18.352 25.659,27.203 l 2.704,2.317 c 2.401,2.057 4.828,4.081 7.26,6.1 2.344,1.773 4.655,3.579 6.953,5.408 1.838,1.247 3.627,2.539 5.41,3.864 1.158,0.772 2.317,1.545 3.476,2.317 1.065,0.71 2.116,1.435 3.168,2.164 1.813,0.906 3.593,1.815 5.332,2.859 10.76,6.455 22.15,11.745 33.69,16.691 3.364,1.345 6.619,2.858 9.891,4.417 8.612,3.124 17.293,6.001 25.956,8.983 6.389,2.198 13.237,3.425 19.783,5.061 11.473,2.087 23.02,3.348 34.608,4.636 l 0.813,0.387 c 0.04,0.386 0.813,0.386 0.813,0.386 h 13.135 c 2.191,-0.94 4.704,-0.773 7.035,-0.773 5.354,-0.515 10.709,-1.031 16.064,-1.545 4.12,-0.258 8.241,-0.515 12.362,-0.772 0.475,-0.988 2.971,-0.53 3.956,-0.58 10.224,-0.524 20.49,-2.06 30.588,-3.711 4.876,-0.796 9.6,-1.925 14.294,-3.436 l 5.022,-1.199 c 4.659,-1.113 9.372,-2.318 13.44,-4.981 4.306,-2.819 9.26,-4.768 13.908,-6.955 1.971,-1.009 3.442,-1.896 5.023,-3.476 0.968,-0.969 1.871,-1.864 3.009,-2.622 0.904,-0.604 1.812,-0.835 2.866,-0.935 2.158,-2.157 4.409,-4.113 6.792,-6.02 l 0.081,-0.08 c 3.185,-3.185 6.649,-6.136 9.964,-9.191 5.928,-5.928 11.697,-11.946 17.159,-18.317 3.882,-4.529 7.346,-9.336 11.026,-14.019 0.982,-1.25 1.558,-2.669 2.11,-4.137 1.233,-1.233 2.466,-2.468 3.701,-3.701 0.588,-1.12 1.213,-2.111 1.972,-3.131 0.737,-0.992 1.12,-1.523 1.199,-2.745 0.15,-2.299 1.909,-4.242 3.09,-6.18 3.271,-5.371 5.968,-10.69 7.808,-16.692 0.772,-1.803 1.546,-3.606 2.318,-5.408 3.794,-8.088 5.029,-16.838 6.953,-25.496 2.404,-9.962 3.397,-20.07 4.671,-30.216 -0.115,-1.38 0.657,-3.698 0.657,-5.243 v -26.268 c -0.424,-0.992 -0.772,-3.153 -0.772,-4.805 0,-7.814 -1.287,-15.735 -2.319,-23.476 -1.506,-11.304 -4.234,-22.455 -6.608,-33.607 -1.302,-6.129 -3.141,-11.907 -5.673,-17.609 l -2.548,-8.539 c -2.457,-8.237 -2.624,-8.539 -4.716,-8.539 -7.268,0 -14.68,1.718 -21.871,2.704 -17.693,2.428 -35.301,5.243 -52.926,8.112 -7.47,1.546 -14.939,3.091 -22.407,4.636 -7.8,2.054 -15.569,3.834 -23.485,5.408 -6.631,1.319 -13.932,3.232 -16.226,4.25 -3.353,1.489 -6.804,2.509 -10.35,3.396 -9.271,3.09 -18.543,6.181 -27.815,9.27 -2.744,0.814 -5.489,1.627 -8.233,2.439 -3.826,1.133 -7.296,3.085 -10.778,4.983 -1.868,1.017 -3.75,1.89 -4.184,1.941 -0.432,0.049 -1.476,-1.131 -2.317,-2.624 -2.744,-4.867 -4.831,-10.136 -7.1,-15.237 -0.747,-1.518 -1.492,-3.036 -2.237,-4.555 -1.248,-2.741 -2.027,-5.359 -2.747,-8.308 -0.659,-2.699 -1.701,-6.124 -2.316,-7.611 -2.733,-6.609 -4.095,-14.198 -5.023,-21.246 -0.446,-3.4 -1.316,-8.094 -1.93,-10.431 -0.616,-2.336 -1.988,-9.637 -3.051,-16.224 -2.283,-14.153 -5.155,-28.085 -8.805,-41.945 l -0.079,-1.719 c -0.069,-1.503 -0.568,-1.752 -3.944,-1.972 -5.031,-0.329 -10.187,0.012 -15.068,1.333 -1.488,0.403 -3.821,0.504 -5.188,0.226 -1.845,-0.376 -2.54,-0.19 -2.844,1.537 0,11.269 3.233,22.536 5.835,33.431 2.242,9.385 6.125,17.893 10.31,26.493 2.614,6.532 5.587,12.909 8.499,19.315 0.431,2.49 2.063,4.788 3.171,7.034 1.656,3.355 3.568,7.7 4.25,9.658 2.154,6.181 4.878,12.314 7.767,18.196 0.989,2.013 1.831,4.057 2.664,6.14 1.801,3.697 2.76,7.542 3.863,11.508 0.546,1.977 -1.478,2.609 -3.179,3.249 -2.379,0.893 -4.761,1.743 -7.172,2.545 -3.201,1.068 -6.493,1.604 -9.819,2.094 -3.156,0.901 -6.21,1.857 -9.272,3.049 -7.32,2.852 -15.674,4.912 -23.485,5.755 -5.417,0.584 -10.595,2.3 -15.799,3.822 -5.721,1.674 -11.585,2.708 -17.424,3.903 -7.481,1.532 -15.478,3.619 -17.77,4.636 -6.398,2.84 -13.284,4.935 -20.09,6.568 -1.957,0.469 -4.564,1.512 -5.794,2.317 -3.679,2.408 -7.918,3.999 -11.936,5.755 -3.355,1.465 -6.499,3.284 -9.699,5.061 -2.512,1.288 -4.684,2.858 -6.872,4.636 5.64,6.396 8.772,14.963 12.361,22.486 0.859,1.037 1.716,2.073 2.575,3.109 4.987,3.917 12.599,1.901 18.287,0.673 6.366,-2.386 12.396,-5.445 18.462,-8.498 1.971,-1.011 3.443,-1.896 5.023,-3.476 0.969,-0.97 1.872,-1.866 3.009,-2.624 0.906,-0.603 1.814,-0.835 2.867,-0.934 1.233,-1.234 2.468,-2.468 3.701,-3.701 0.57,-0.055 1.138,-0.108 1.707,-0.163 1.235,-1.233 2.468,-2.466 3.701,-3.701 0.963,-0.091 1.755,-0.209 2.48,-0.933 1.535,-1.536 3.418,-3.124 5.328,-4.17 0.47,-0.256 1.687,-1.125 2.704,-1.93 5.916,-4.683 13.322,-7.082 20.17,-10.126 3.234,-1.437 6.402,-2.988 9.577,-4.554 1.803,-0.772 3.605,-1.546 5.408,-2.318 2.395,-0.825 4.72,-1.628 6.995,-2.744 3.032,-1.489 6.057,-2.641 9.312,-3.517 4.772,-2.263 9.678,-4.068 14.712,-5.689 4.657,-1.502 9.665,-2.943 11.13,-3.206 3.391,-0.606 4.75,0.864 6.102,3.567 2.67,5.343 5.006,10.86 7.461,16.305 0.745,1.519 1.491,3.038 2.237,4.555 1.567,3.436 2.5,6.927 3.5,10.584 1.094,3.997 2.666,9.005 3.494,11.129 2.402,6.166 3.504,12.764 4.636,19.275 0.733,4.217 1.849,8.216 3.05,12.321 0.806,3.626 1.62,7.212 2.664,10.776 1.794,6.13 2.955,12.42 4.29,18.664 1.244,5.211 2.525,10.398 4.33,15.452 1.591,4.455 3.463,8.631 5.755,12.748 0.993,1.784 1.879,3.562 2.697,5.434 0.944,2.162 1.515,2.637 2.744,2.278 3.487,-1.017 6.762,-2.87 10.052,-4.397 l 1.159,-1.159 c 1.031,-1.03 1.301,-1.273 2.444,-2.188 0.707,-0.565 1.384,-2.304 1.504,-3.862 0.121,-1.559 -0.649,-9.092 -1.711,-16.742 -0.985,-7.093 -1.976,-14.178 -3.13,-21.246 -1.21,-7.395 -2.792,-14.898 -5.41,-21.939 -1.096,-2.948 -2.245,-5.875 -3.396,-8.804 -1.252,-3.187 -2.488,-6.873 -2.745,-8.192 -0.256,-1.32 -1.299,-3.753 -2.317,-5.409 -1.148,-1.866 -2.291,-4.183 -3.01,-6.099 -5.164,-13.768 -12.822,-26.393 -19.361,-39.509 -1.512,-3.032 -2.941,-6.298 -3.177,-7.256 -0.363,-1.474 0.112,-1.998 3.054,-3.372 1.916,-0.895 4.388,-1.838 5.495,-2.095 2.195,-0.509 4.152,-1.637 6.107,-2.708 3.27,-0.797 6.542,-1.596 9.814,-2.395 5.394,-1.617 10.798,-3.185 16.218,-4.716 5.746,-0.696 11.492,-1.392 17.23,-2.156 23.723,-3.162 47.748,-3.09 71.631,-3.09 4.636,-0.258 9.272,-0.515 13.908,-0.774 h 13.135 c 8.884,-0.682 17.733,-1.576 26.596,-2.502 l 0.569,2.065 c 1.335,4.84 1.521,10.056 2.115,15.037 1.904,16.184 2.317,32.543 2.317,48.835 -1.56,14.037 -3.667,27.897 -6.608,41.72 -1.389,6.531 -3.076,12.672 -5.713,18.768 -0.828,1.912 -1.89,5.077 -2.359,7.033 -0.945,3.944 -2.725,7.392 -4.676,10.898 -3.399,6.105 -6.216,12.545 -9.232,18.848 -0.799,1.572 -1.599,3.144 -2.399,4.716 -1.233,1.233 -2.466,2.468 -3.701,3.701 -0.791,1.185 -1.555,2.361 -1.88,3.776 -0.549,2.391 -2.825,4.403 -4.301,6.268 -1.568,2.091 -3.14,4.177 -4.716,6.261 -6.66,8.019 -14.348,15.119 -21.715,22.487 -1.519,1.26 -3.037,2.521 -4.556,3.781 -1.684,1.275 -3.365,2.552 -5.021,3.864 -1.134,0.896 -2.294,1.707 -3.559,2.398 l -1.504,1.118 c -3.395,2.523 -7.104,4.323 -10.736,6.487 -4.067,2.423 -8.235,4.825 -12.789,6.221 -1.532,0.47 -3.707,1.358 -4.832,1.974 -4.958,2.713 -11.038,4.001 -16.496,5.366 -10.482,2.62 -21.19,3.762 -31.904,5.022 -12.688,1.493 -25.63,1.545 -38.408,1.545 -11.703,-1.3 -23.204,-3.255 -34.607,-6.18 -4.831,-1.999 -9.72,-3.675 -14.68,-5.328 -2.784,-0.543 -5.351,-1.275 -7.808,-2.785 -1.856,-1.142 -4.489,-2.443 -6.872,-3.396 -15.161,-6.063 -29.385,-14.108 -43.349,-22.486 -1.779,-0.912 -3.462,-1.862 -5.023,-3.13 -1.44,-1.172 -2.125,-1.6 -3.091,-1.932 -0.964,-0.332 -1.649,-0.76 -3.09,-1.932 -1.366,-1.11 -2.692,-1.795 -4.33,-2.358 l -1.85,-1.85 c -0.97,-0.97 -1.872,-1.866 -3.011,-2.624 -0.637,-0.426 -1.716,-0.808 -2.399,-0.854 -1.924,-0.125 -3.668,-2.509 -4.941,-3.781 -1.12,-0.588 -2.111,-1.215 -3.131,-1.972 -0.992,-0.737 -1.522,-1.12 -2.745,-1.2 -1.393,-0.091 -1.997,-0.697 -3.091,-1.585 -1.364,-1.11 -2.692,-1.795 -4.329,-2.359 l -1.851,-1.851 c -1.326,-1.326 -2.617,-2.361 -4.169,-3.396 -1.288,-0.644 -2.436,-1.446 -3.557,-2.357 -7.935,-6.452 -14.09,-14.361 -20.13,-22.487 -3.262,-4.389 -5.678,-9.098 -8.418,-13.825 -2.682,-4.627 -5.226,-9.261 -6.994,-14.333 -1.341,-3.848 -2.88,-7.586 -4.676,-11.244 -1.733,-3.526 -2.926,-6.739 -3.865,-10.586 -0.659,-2.698 -1.701,-6.122 -2.316,-7.61 -2.809,-6.791 -3.736,-14.503 -4.703,-21.724 -0.941,-7.03 -2.098,-14.003 -3.289,-20.994 -0.071,-1.701 -0.143,-3.402 -0.213,-5.102 h 0.132 v -27.042 0 c 0,-3.632 0.48,-7.206 0.872,-10.816 0.634,0 0.464,-2.741 0.51,-3.325 1.024,-13.027 4.019,-26.031 6.426,-38.863 1.794,-4.829 3.41,-9.688 4.981,-14.598 1.509,-4.719 3.577,-9.934 4.596,-11.588 1.147,-1.867 2.291,-4.184 3.009,-6.1 3.188,-8.502 7.594,-16.75 11.711,-24.846 0.9,-1.768 1.576,-2.82 2.704,-4.208 1.111,-1.365 1.795,-2.693 2.359,-4.33 1.234,-1.234 2.468,-2.468 3.701,-3.702 0.055,-0.569 0.108,-1.137 0.161,-1.706 1.235,-1.234 2.468,-2.468 3.703,-3.702 l 0.381,-1.108 c 0.966,-2.808 3.931,-5.2 5.8,-7.39 6.004,-7.206 12.847,-13.62 19.478,-20.25 l 2.704,-2.317 c 4.345,-3.724 8.905,-6.989 13.481,-10.389 8.732,-6.491 18.785,-10.55 28.628,-15.107 l 2.004,-1.103 c 4.941,-2.716 11.113,-3.593 16.539,-5.077 1.802,-0.516 3.606,-1.031 5.409,-1.545 13.649,-4.392 28.309,-4.035 42.495,-4.555 16.589,0 33.05,5.1 49.062,8.924 2.972,0.709 5.667,1.481 8.46,2.704 2.048,0.897 4.038,1.684 6.182,2.319 2.161,0.64 3.828,1.48 5.753,2.664 4.507,2.77 9.741,4.404 14.6,6.485 19.497,8.999 38.696,18.563 57.643,28.667 5.06,2.7 9.772,5.58 14.213,9.19 4.689,4.69 9.379,9.379 14.069,14.07 l 1.891,2.277 c 5.485,6.605 10.269,13.685 15.027,20.819 1.202,1.737 2.144,3.516 3.09,5.409 1.34,1.708 4.007,-0.087 5.595,-0.867 5.109,-2.508 10.657,-3.901 16.12,-5.396 1.287,-0.772 2.575,-1.545 3.863,-2.317 1.261,-0.745 2.521,-1.492 3.782,-2.237 3.868,-3.438 4.787,-7.747 3.863,-12.828 -0.891,-4.9 -2.624,-9.408 -4.676,-13.907 -1.287,-2.821 -3.129,-5.021 -5.287,-7.179 -0.196,-0.622 -0.393,-1.245 -0.589,-1.868 l -3.649,-3.396 c -6.01,-5.592 -12.538,-10.177 -19.254,-14.826 -1.381,-0.956 -2.902,-1.644 -4.404,-2.395 -2.676,-1.605 -5.373,-3.141 -8.113,-4.636 -2.473,-1.349 -4.905,-2.724 -7.3,-4.209 -1.848,-1.146 -3.387,-1.923 -3.903,-1.972 -0.517,-0.048 -2.056,-0.826 -3.904,-1.972 -1.901,-1.179 -3.812,-2.327 -5.754,-3.436 -3.246,-1.855 -6.44,-3.784 -9.618,-5.754 -6.637,-4.116 -14.192,-7.089 -21.369,-10.165 -2.461,-1.055 -4.856,-2.216 -7.259,-3.396 -3.792,-1.729 -7.709,-2.747 -11.73,-3.881 -4.642,-1.31 -9.656,-2.884 -11.144,-3.499 -6.652,-2.752 -14.195,-3.699 -21.247,-4.981 -8.212,-0.875 -16.409,-1.69 -24.644,-2.319 -8.529,-0.651 -16.948,-0.772 -25.497,-0.772 v -0.387 0 z" />
    <path
       id="dp_path003"
       fill="#5cc8c1"
       fill-rule="evenodd"
       stroke="#000000"
       stroke-width="6.66667"
       d="m 394.149,486.879 c -0.99,0.425 -4.544,0.773 -7.894,0.773 -16.396,0 -32.818,2.923 -48.751,6.597 -4.724,1.088 -9.632,2.362 -13.745,5.032 -4.035,2.62 -8.738,4.303 -13.135,6.222 l -1.851,1.504 c -1.366,1.11 -2.693,1.794 -4.33,2.358 l -1.466,1.464 c -1.41,1.412 -2.961,2.588 -4.554,3.783 -13.504,10.803 -24.262,24.675 -35.236,37.939 -1.259,1.521 -2.439,3.09 -3.558,4.716 -0.976,1.233 -1.953,2.468 -2.929,3.701 -0.813,1.199 -1.627,2.399 -2.439,3.597 -0.622,0.919 -1.269,1.814 -1.932,2.704 -2.309,3.107 -4.38,6.398 -6.526,9.618 -0.71,1.064 -1.436,2.117 -2.164,3.168 -0.632,1.698 -1.352,3.132 -2.514,4.558 -1.17,1.44 -1.598,2.126 -1.93,3.091 -0.898,2.607 -2.762,5.004 -4.21,7.339 l -2.664,4.596 c -4.604,7.941 -8.09,16.784 -11.71,25.23 -1.055,2.462 -2.216,4.856 -3.396,7.259 -0.607,2.253 -1.355,4.231 -2.359,6.355 -1.429,3.022 -2.247,6.028 -3.091,9.27 -1.498,5.754 -3.518,11.262 -5.368,16.906 -0.624,4.516 -1.694,8.796 -3.09,13.133 -0.858,5.521 -1.716,11.041 -2.575,16.561 -0.543,6.743 -1.085,13.484 -1.628,20.227 l -0.217,0.108 c -0.216,0.108 -0.216,0.108 -0.216,0.108 v 12.361 c 1.2,2.8 0.773,6.366 0.773,9.352 0.792,6.338 1.593,12.64 2.704,18.93 1.264,7.16 3.103,14.152 4.676,21.246 1.304,5.879 2.981,11.779 6.141,16.916 1.147,1.867 2.291,4.184 3.01,6.1 3.27,8.723 7.648,17.2 12.442,25.191 1.003,1.669 1.898,3.371 2.786,5.103 1.234,1.233 2.468,2.468 3.701,3.701 1.433,2.731 3.224,5.293 5.063,7.767 0.616,0.828 1.29,2.004 1.5,2.613 0.858,2.493 3.39,4.64 5.028,6.617 7.824,9.78 16.808,18.352 25.658,27.203 l 2.704,2.317 c 2.4,2.058 4.827,4.082 7.26,6.1 2.343,1.774 4.654,3.579 6.954,5.408 1.837,1.247 3.626,2.539 5.408,3.864 1.158,0.772 2.318,1.546 3.477,2.318 1.064,0.709 2.116,1.436 3.168,2.164 1.812,0.905 3.592,1.814 5.331,2.858 10.761,6.455 22.152,11.746 33.69,16.691 3.366,1.345 6.619,2.859 9.891,4.417 8.613,3.124 17.295,6.002 25.957,8.983 6.388,2.199 13.236,3.425 19.783,5.063 11.472,2.085 23.02,3.348 34.608,4.634 l 0.812,0.387 c 0.041,0.387 0.813,0.387 0.813,0.387 h 13.135 c 2.191,-0.94 4.704,-0.774 7.035,-0.774 5.354,-0.514 10.709,-1.029 16.064,-1.545 4.121,-0.257 8.241,-0.515 12.362,-0.772 0.475,-0.988 2.972,-0.529 3.956,-0.58 10.224,-0.523 20.491,-2.06 30.588,-3.709 4.878,-0.798 9.6,-1.927 14.295,-3.438 l 5.021,-1.198 c 4.659,-1.114 9.374,-2.319 13.442,-4.982 4.304,-2.818 9.258,-4.768 13.906,-6.953 1.971,-1.011 3.443,-1.897 5.023,-3.477 0.969,-0.97 1.872,-1.864 3.009,-2.623 0.906,-0.604 1.814,-0.835 2.866,-0.935 2.158,-2.157 4.41,-4.113 6.793,-6.02 l 0.08,-0.08 c 3.187,-3.185 6.651,-6.136 9.964,-9.19 5.928,-5.928 11.699,-11.947 17.16,-18.318 3.883,-4.529 7.345,-9.336 11.025,-14.018 0.983,-1.251 1.558,-2.67 2.11,-4.138 1.233,-1.234 2.468,-2.468 3.701,-3.701 0.588,-1.12 1.215,-2.112 1.972,-3.131 0.737,-0.992 1.12,-1.522 1.2,-2.745 0.149,-2.299 1.909,-4.241 3.091,-6.18 3.27,-5.371 5.968,-10.691 7.806,-16.692 0.774,-1.803 1.546,-3.605 2.319,-5.408 3.795,-8.088 5.029,-16.837 6.953,-25.496 2.404,-9.961 3.398,-20.071 4.67,-30.217 -0.115,-1.379 0.658,-3.696 0.658,-5.242 v -26.269 c -0.425,-0.991 -0.773,-3.153 -0.773,-4.804 0,-7.815 -1.285,-15.736 -2.317,-23.476 -1.508,-11.304 -4.236,-22.456 -6.608,-33.608 -1.304,-6.129 -3.142,-11.905 -5.674,-17.608 l -2.548,-8.54 c -2.457,-8.237 -2.624,-8.539 -4.717,-8.539 -7.267,0 -14.679,1.718 -21.871,2.704 -17.692,2.428 -35.3,5.243 -52.926,8.112 -7.468,1.546 -14.938,3.091 -22.407,4.636 -7.799,2.055 -15.568,3.834 -23.484,5.408 -6.632,1.32 -13.933,3.232 -16.225,4.25 -3.355,1.489 -6.806,2.509 -10.351,3.396 -9.272,3.09 -18.544,6.181 -27.815,9.272 -2.745,0.812 -5.489,1.625 -8.234,2.438 -3.824,1.132 -7.295,3.084 -10.776,4.982 -1.868,1.017 -3.751,1.892 -4.184,1.941 -0.434,0.051 -1.476,-1.129 -2.319,-2.623 -2.744,-4.868 -4.831,-10.136 -7.1,-15.237 -0.745,-1.519 -1.491,-3.037 -2.237,-4.555 -1.248,-2.741 -2.026,-5.358 -2.747,-8.309 -0.657,-2.699 -1.7,-6.123 -2.315,-7.611 -2.734,-6.608 -4.096,-14.197 -5.022,-21.246 -0.448,-3.399 -1.316,-8.092 -1.932,-10.43 -0.615,-2.337 -1.988,-9.638 -3.05,-16.225 -2.284,-14.153 -5.154,-28.085 -8.805,-41.945 l -0.079,-1.719 c -0.069,-1.503 -0.568,-1.752 -3.944,-1.972 -5.032,-0.329 -10.188,0.012 -15.069,1.333 -1.487,0.403 -3.821,0.504 -5.187,0.226 -1.845,-0.376 -2.54,-0.19 -2.844,1.537 0,11.269 3.234,22.537 5.835,33.431 2.241,9.385 6.125,17.894 10.309,26.493 2.614,6.533 5.588,12.911 8.499,19.315 0.431,2.49 2.064,4.788 3.172,7.034 1.656,3.355 3.568,7.7 4.249,9.658 2.155,6.182 4.879,12.314 7.767,18.196 0.989,2.014 1.831,4.058 2.664,6.141 1.801,3.697 2.76,7.541 3.864,11.508 0.547,1.977 -1.477,2.609 -3.18,3.248 -2.377,0.893 -4.761,1.743 -7.171,2.547 -3.202,1.066 -6.494,1.602 -9.82,2.092 -3.156,0.902 -6.21,1.858 -9.27,3.05 -7.32,2.851 -15.676,4.912 -23.486,5.755 -5.417,0.584 -10.594,2.3 -15.798,3.823 -5.722,1.673 -11.587,2.708 -17.426,3.902 -7.481,1.532 -15.477,3.618 -17.77,4.636 -6.396,2.839 -13.283,4.935 -20.088,6.567 -1.958,0.469 -4.566,1.512 -5.796,2.317 -3.678,2.408 -7.918,3.999 -11.935,5.755 -3.356,1.465 -6.499,3.285 -9.699,5.063 -2.513,1.288 -4.685,2.856 -6.873,4.636 5.641,6.394 8.773,14.962 12.363,22.485 0.857,1.036 1.716,2.072 2.573,3.109 4.987,3.918 12.6,1.9 18.288,0.674 6.365,-2.387 12.396,-5.446 18.463,-8.499 1.97,-1.011 3.441,-1.897 5.021,-3.477 0.969,-0.97 1.872,-1.864 3.011,-2.623 0.904,-0.604 1.813,-0.835 2.865,-0.935 1.235,-1.233 2.468,-2.468 3.703,-3.701 0.568,-0.053 1.137,-0.108 1.706,-0.161 1.234,-1.234 2.467,-2.468 3.702,-3.702 0.961,-0.092 1.754,-0.209 2.478,-0.934 1.536,-1.535 3.419,-3.123 5.328,-4.168 0.47,-0.258 1.687,-1.127 2.704,-1.932 5.918,-4.682 13.322,-7.08 20.17,-10.124 3.236,-1.438 6.404,-2.99 9.578,-4.555 1.803,-0.773 3.606,-1.545 5.408,-2.319 2.395,-0.825 4.72,-1.626 6.994,-2.744 3.032,-1.488 6.057,-2.641 9.313,-3.517 4.772,-2.263 9.679,-4.067 14.712,-5.689 4.656,-1.5 9.665,-2.943 11.129,-3.206 3.391,-0.606 4.751,0.864 6.102,3.568 2.672,5.343 5.006,10.86 7.461,16.306 0.747,1.517 1.492,3.036 2.237,4.554 1.567,3.436 2.5,6.926 3.502,10.584 1.093,3.996 2.665,9.004 3.493,11.13 2.401,6.165 3.504,12.762 4.636,19.274 0.733,4.218 1.848,8.216 3.049,12.322 0.806,3.624 1.622,7.21 2.664,10.776 1.794,6.129 2.956,12.42 4.291,18.662 1.244,5.211 2.525,10.399 4.329,15.454 1.592,4.454 3.464,8.63 5.755,12.748 0.993,1.784 1.88,3.561 2.697,5.433 0.944,2.163 1.516,2.636 2.744,2.277 3.487,-1.017 6.762,-2.869 10.052,-4.396 l 1.159,-1.158 c 1.031,-1.031 1.303,-1.274 2.444,-2.188 0.707,-0.566 1.384,-2.304 1.505,-3.863 0.122,-1.559 -0.649,-9.093 -1.712,-16.741 -0.985,-7.094 -1.976,-14.179 -3.13,-21.247 -1.208,-7.395 -2.792,-14.899 -5.408,-21.939 -1.098,-2.949 -2.246,-5.876 -3.396,-8.804 -1.254,-3.186 -2.488,-6.873 -2.746,-8.193 -0.257,-1.319 -1.3,-3.752 -2.317,-5.408 -1.148,-1.867 -2.292,-4.184 -3.011,-6.1 -5.162,-13.768 -12.821,-26.393 -19.36,-39.508 -1.512,-3.032 -2.942,-6.299 -3.178,-7.257 -0.362,-1.472 0.113,-1.996 3.054,-3.371 1.916,-0.896 4.39,-1.839 5.496,-2.095 2.194,-0.509 4.151,-1.638 6.106,-2.708 3.272,-0.798 6.542,-1.597 9.814,-2.394 5.395,-1.619 10.799,-3.187 16.219,-4.718 5.747,-0.694 11.492,-1.39 17.229,-2.156 23.723,-3.162 47.748,-3.09 71.632,-3.09 4.636,-0.258 9.271,-0.515 13.907,-0.772 4.379,0 8.757,0 13.136,0 8.883,-0.684 17.733,-1.576 26.595,-2.503 l 0.569,2.064 c 1.336,4.84 1.521,10.056 2.115,15.037 1.905,16.186 2.318,32.543 2.318,48.835 -1.56,14.039 -3.668,27.899 -6.608,41.721 -1.389,6.531 -3.076,12.672 -5.714,18.767 -0.827,1.912 -1.888,5.077 -2.358,7.035 -0.946,3.944 -2.725,7.39 -4.677,10.897 -3.397,6.105 -6.215,12.545 -9.231,18.848 -0.8,1.572 -1.598,3.144 -2.398,4.716 -1.235,1.233 -2.468,2.467 -3.702,3.701 -0.79,1.186 -1.556,2.362 -1.881,3.776 -0.548,2.391 -2.824,4.403 -4.3,6.268 -1.568,2.091 -3.141,4.178 -4.717,6.262 -6.659,8.018 -14.347,15.118 -21.715,22.486 -1.519,1.26 -3.036,2.522 -4.555,3.782 -1.685,1.274 -3.365,2.552 -5.022,3.864 -1.132,0.896 -2.294,1.706 -3.558,2.398 l -1.505,1.118 c -3.393,2.522 -7.104,4.322 -10.736,6.486 -4.065,2.423 -8.235,4.826 -12.789,6.222 -1.532,0.469 -3.706,1.357 -4.831,1.973 -4.957,2.713 -11.039,4.001 -16.497,5.367 -10.482,2.62 -21.188,3.761 -31.904,5.021 -12.687,1.493 -25.63,1.545 -38.407,1.545 -11.704,-1.3 -23.205,-3.253 -34.607,-6.18 -4.83,-1.998 -9.72,-3.674 -14.681,-5.328 -2.784,-0.541 -5.351,-1.274 -7.807,-2.785 -1.856,-1.141 -4.49,-2.443 -6.873,-3.396 -15.16,-6.063 -29.385,-14.108 -43.348,-22.485 -1.779,-0.912 -3.463,-1.863 -5.023,-3.131 -1.441,-1.172 -2.125,-1.6 -3.09,-1.932 -0.966,-0.332 -1.65,-0.76 -3.091,-1.932 -1.365,-1.109 -2.693,-1.795 -4.331,-2.357 l -1.85,-1.851 c -0.97,-0.969 -1.872,-1.865 -3.01,-2.624 -0.637,-0.425 -1.717,-0.808 -2.398,-0.853 -1.926,-0.126 -3.668,-2.51 -4.942,-3.782 -1.12,-0.588 -2.112,-1.214 -3.132,-1.972 -0.99,-0.737 -1.521,-1.12 -2.744,-1.2 -1.394,-0.09 -1.998,-0.697 -3.09,-1.585 -1.366,-1.111 -2.694,-1.795 -4.331,-2.359 l -1.851,-1.85 c -1.326,-1.327 -2.617,-2.362 -4.168,-3.396 -1.289,-0.644 -2.437,-1.447 -3.558,-2.358 -7.935,-6.452 -14.09,-14.361 -20.128,-22.486 -3.264,-4.39 -5.679,-9.1 -8.419,-13.827 -2.683,-4.625 -5.227,-9.26 -6.995,-14.333 -1.34,-3.847 -2.878,-7.584 -4.676,-11.243 -1.732,-3.527 -2.926,-6.739 -3.865,-10.585 -0.659,-2.699 -1.701,-6.124 -2.316,-7.611 -2.809,-6.792 -3.736,-14.503 -4.703,-21.725 -0.94,-7.028 -2.098,-14.003 -3.289,-20.994 -0.071,-1.7 -0.141,-3.401 -0.212,-5.102 0.044,0 0.088,0 0.132,0 0,-9.014 0,-18.027 0,-27.04 v 0 c 0,-3.632 0.48,-7.207 0.872,-10.818 0.635,0 0.464,-2.74 0.509,-3.324 1.026,-13.026 4.019,-26.032 6.426,-38.862 1.794,-4.83 3.412,-9.69 4.982,-14.599 1.51,-4.719 3.578,-9.935 4.595,-11.589 1.148,-1.867 2.292,-4.184 3.011,-6.1 3.188,-8.502 7.592,-16.748 11.71,-24.846 0.899,-1.768 1.575,-2.82 2.704,-4.208 1.11,-1.365 1.795,-2.693 2.358,-4.33 1.234,-1.234 2.468,-2.468 3.702,-3.702 0.054,-0.569 0.108,-1.137 0.162,-1.706 1.234,-1.234 2.468,-2.468 3.701,-3.702 l 0.381,-1.108 c 0.967,-2.808 3.932,-5.2 5.8,-7.39 6.004,-7.204 12.848,-13.62 19.478,-20.25 l 2.704,-2.317 c 4.345,-3.724 8.905,-6.989 13.481,-10.389 8.732,-6.491 18.785,-10.55 28.628,-15.107 l 2.005,-1.103 c 4.942,-2.716 11.114,-3.593 16.539,-5.078 1.803,-0.515 3.605,-1.03 5.408,-1.546 13.651,-4.39 28.311,-4.033 42.496,-4.554 16.588,0 33.049,5.101 49.063,8.925 2.97,0.709 5.665,1.481 8.458,2.704 2.048,0.897 4.039,1.684 6.182,2.319 2.162,0.64 3.829,1.478 5.754,2.662 4.506,2.772 9.742,4.406 14.6,6.487 19.498,8.999 38.696,18.563 57.642,28.667 5.061,2.7 9.772,5.58 14.213,9.19 4.691,4.69 9.38,9.38 14.069,14.07 l 1.891,2.277 c 5.487,6.605 10.271,13.685 15.027,20.82 1.202,1.736 2.145,3.516 3.09,5.408 1.34,1.708 4.007,-0.087 5.596,-0.867 5.108,-2.508 10.656,-3.901 16.119,-5.394 1.288,-0.774 2.576,-1.546 3.864,-2.319 1.26,-0.745 2.521,-1.491 3.781,-2.237 3.868,-3.438 4.788,-7.747 3.864,-12.828 -0.89,-4.9 -2.624,-9.408 -4.676,-13.907 -1.288,-2.821 -3.13,-5.021 -5.288,-7.179 -0.196,-0.622 -0.392,-1.245 -0.588,-1.868 l -3.65,-3.396 c -6.008,-5.592 -12.536,-10.177 -19.254,-14.826 -1.381,-0.956 -2.901,-1.644 -4.404,-2.395 -2.674,-1.605 -5.372,-3.141 -8.112,-4.636 -2.474,-1.349 -4.905,-2.725 -7.3,-4.209 -1.848,-1.146 -3.386,-1.923 -3.904,-1.972 -0.517,-0.048 -2.054,-0.826 -3.902,-1.972 -1.903,-1.179 -3.812,-2.327 -5.755,-3.436 -3.247,-1.855 -6.441,-3.784 -9.619,-5.754 -6.636,-4.116 -14.19,-7.089 -21.368,-10.165 -2.461,-1.055 -4.856,-2.216 -7.26,-3.396 -3.792,-1.729 -7.708,-2.747 -11.73,-3.881 -4.642,-1.31 -9.656,-2.884 -11.143,-3.499 -6.653,-2.752 -14.195,-3.7 -21.248,-4.981 -8.212,-0.875 -16.409,-1.69 -24.644,-2.319 -8.529,-0.651 -16.947,-0.772 -25.497,-0.772 v -0.387 c 0,-0.386 0,-0.386 0,-0.386 z" />
    <path
       id="dp_path004"
       fill="#000000"
       fill-rule="evenodd"
       stroke="none"
       stroke-width="0"
       d="m 827.916,408.421 c 0,-123.896 100.441,-224.333 224.344,-224.333 123.9,0 224.34,100.437 224.34,224.333 0,123.896 -100.44,224.334 -224.34,224.334 -123.903,0 -224.344,-100.438 -224.344,-224.334 z" />
    <g
       id="dp_dp005"
       clip-path="url(#clip_dp_002)">
      <g
         id="clip">
        <path
           id="dp_path006"
           fill="#f69026"
           fill-rule="evenodd"
           stroke="none"
           stroke-width="0"
           d="M 1052.91,148.873 H 793.356 v 259.548 h 259.554 z" />
        <path
           id="dp_path007"
           fill="#ebed22"
           fill-rule="evenodd"
           stroke="none"
           stroke-width="0"
           d="M 1312.48,408.421 V 148.873 h -259.57 v 259.548 z" />
        <path
           id="dp_path008"
           fill="#5cc8c1"
           fill-rule="evenodd"
           stroke="none"
           stroke-width="0"
           d="M 793.356,408.421 V 667.969 H 1052.91 V 408.421 Z" />
        <path
           id="dp_path009"
           fill="#7ccb3b"
           fill-rule="evenodd"
           stroke="none"
           stroke-width="0"
           d="m 1312.48,408.421 h -259.57 v 259.548 h 259.57 z" />
      </g>
    </g>
    <path
       id="dp_path010"
       fill="#7ccb3b"
       fill-rule="evenodd"
       stroke="#000000"
       stroke-width="6.66667"
       d="m 738.708,554.643 c -4.731,-0.231 -9.548,0.146 -14.124,1.386 -1.487,0.403 -3.821,0.504 -5.187,0.226 -1.845,-0.376 -2.54,-0.19 -2.844,1.537 0,11.269 3.234,22.537 5.835,33.431 2.241,9.385 6.125,17.894 10.309,26.493 2.614,6.533 5.588,12.911 8.499,19.315 0.431,2.49 2.064,4.788 3.172,7.034 1.656,3.355 3.568,7.7 4.249,9.658 2.155,6.182 4.879,12.314 7.767,18.196 0.989,2.014 1.831,4.058 2.664,6.141 1.801,3.697 2.76,7.541 3.864,11.508 0.547,1.977 -1.477,2.609 -3.18,3.248 -2.377,0.893 -4.761,1.743 -7.171,2.547 -3.202,1.066 -6.494,1.602 -9.82,2.092 -3.156,0.902 -6.21,1.858 -9.27,3.05 -7.32,2.851 -15.676,4.912 -23.486,5.755 -5.417,0.584 -10.594,2.3 -15.798,3.823 -5.722,1.673 -11.587,2.708 -17.426,3.902 -7.481,1.532 -15.477,3.618 -17.77,4.636 -6.396,2.839 -13.283,4.935 -20.088,6.567 -1.958,0.469 -4.566,1.512 -5.796,2.317 -3.678,2.408 -7.918,3.999 -11.935,5.755 -3.356,1.465 -6.499,3.285 -9.699,5.063 -2.513,1.288 -4.685,2.856 -6.873,4.636 5.641,6.394 8.773,14.962 12.363,22.485 0.857,1.036 1.716,2.072 2.573,3.109 4.987,3.918 12.6,1.9 18.288,0.674 6.365,-2.387 12.396,-5.446 18.463,-8.499 1.97,-1.011 3.441,-1.897 5.021,-3.477 0.969,-0.97 1.872,-1.864 3.011,-2.623 0.904,-0.604 1.813,-0.835 2.865,-0.935 1.235,-1.233 2.468,-2.468 3.703,-3.701 0.568,-0.053 1.137,-0.108 1.706,-0.161 1.234,-1.234 2.467,-2.468 3.702,-3.702 0.961,-0.092 1.754,-0.209 2.478,-0.934 1.536,-1.535 3.419,-3.123 5.328,-4.168 0.47,-0.258 1.687,-1.127 2.704,-1.932 5.918,-4.682 13.322,-7.08 20.17,-10.124 3.236,-1.438 6.404,-2.99 9.578,-4.555 1.803,-0.773 3.606,-1.545 5.408,-2.319 2.395,-0.825 4.72,-1.626 6.994,-2.744 3.032,-1.488 6.057,-2.641 9.313,-3.517 4.772,-2.263 9.679,-4.067 14.712,-5.689 4.656,-1.5 9.665,-2.943 11.129,-3.206 3.391,-0.606 4.751,0.864 6.102,3.568 2.672,5.343 5.006,10.86 7.461,16.306 0.747,1.517 1.492,3.036 2.237,4.554 1.567,3.436 2.5,6.926 3.502,10.584 1.093,3.996 2.665,9.004 3.493,11.13 2.401,6.165 3.504,12.762 4.636,19.274 0.733,4.218 1.848,8.216 3.049,12.322 0.806,3.624 1.622,7.21 2.664,10.776 1.794,6.129 2.956,12.42 4.291,18.662 1.244,5.211 2.525,10.399 4.329,15.454 1.592,4.454 3.464,8.63 5.755,12.748 0.993,1.784 1.88,3.561 2.697,5.433 0.944,2.163 1.516,2.636 2.744,2.277 3.487,-1.017 6.762,-2.869 10.052,-4.396 l 1.159,-1.158 c 1.031,-1.031 1.303,-1.274 2.444,-2.188 0.707,-0.566 1.384,-2.304 1.505,-3.863 0.122,-1.559 -0.649,-9.093 -1.712,-16.741 -0.985,-7.094 -1.976,-14.179 -3.13,-21.247 -1.208,-7.395 -2.792,-14.899 -5.408,-21.939 -1.098,-2.949 -2.246,-5.876 -3.396,-8.804 -1.254,-3.186 -2.488,-6.873 -2.746,-8.193 -0.257,-1.319 -1.3,-3.752 -2.317,-5.408 -1.148,-1.867 -2.292,-4.184 -3.011,-6.1 -5.162,-13.768 -12.821,-26.393 -19.36,-39.508 -1.512,-3.032 -2.942,-6.299 -3.178,-7.257 -0.362,-1.472 0.113,-1.996 3.054,-3.371 1.916,-0.896 4.39,-1.839 5.496,-2.095 2.194,-0.509 4.151,-1.638 6.106,-2.708 3.272,-0.798 6.542,-1.597 9.814,-2.394 5.395,-1.619 10.799,-3.187 16.219,-4.718 5.747,-0.694 11.492,-1.39 17.229,-2.156 23.723,-3.162 47.748,-3.09 71.632,-3.09 4.636,-0.258 9.271,-0.515 13.907,-0.772 4.379,0 8.757,0 13.136,0 8.883,-0.684 17.733,-1.576 26.595,-2.503 l 0.569,2.064 c 1.336,4.84 1.521,10.056 2.115,15.037 1.905,16.186 2.318,32.543 2.318,48.835 -1.56,14.039 -3.668,27.899 -6.608,41.721 -1.389,6.531 -3.076,12.672 -5.714,18.767 -0.827,1.912 -1.888,5.077 -2.358,7.035 -0.946,3.944 -2.725,7.39 -4.677,10.897 -3.397,6.105 -6.215,12.545 -9.231,18.848 -0.8,1.572 -1.598,3.144 -2.398,4.716 -1.235,1.233 -2.468,2.467 -3.702,3.701 -0.79,1.186 -1.556,2.362 -1.881,3.776 -0.548,2.391 -2.824,4.403 -4.3,6.268 -1.568,2.091 -3.141,4.178 -4.717,6.262 -6.659,8.018 -14.347,15.118 -21.715,22.486 -1.519,1.26 -3.036,2.522 -4.555,3.782 -1.685,1.274 -3.365,2.552 -5.022,3.864 -1.132,0.896 -2.294,1.706 -3.558,2.398 l -1.505,1.118 c -3.393,2.522 -7.104,4.322 -10.736,6.486 -4.065,2.423 -8.235,4.826 -12.789,6.222 -1.532,0.469 -3.706,1.357 -4.831,1.973 -4.957,2.713 -11.039,4.001 -16.497,5.367 -10.482,2.62 -21.188,3.761 -31.904,5.021 -12.687,1.493 -25.63,1.545 -38.407,1.545 -11.704,-1.3 -23.205,-3.253 -34.607,-6.18 -4.83,-1.998 -9.72,-3.674 -14.681,-5.328 -2.784,-0.541 -5.351,-1.274 -7.807,-2.785 -1.856,-1.141 -4.49,-2.443 -6.873,-3.396 -15.16,-6.063 -29.385,-14.108 -43.348,-22.485 -1.779,-0.912 -3.463,-1.863 -5.023,-3.131 -1.441,-1.172 -2.125,-1.6 -3.09,-1.932 -0.966,-0.332 -1.65,-0.76 -3.091,-1.932 -1.365,-1.109 -2.693,-1.795 -4.331,-2.357 l -1.85,-1.851 c -0.97,-0.969 -1.872,-1.865 -3.01,-2.624 -0.637,-0.425 -1.717,-0.808 -2.398,-0.853 -1.926,-0.126 -3.668,-2.51 -4.942,-3.782 -1.12,-0.588 -2.112,-1.214 -3.132,-1.972 -0.99,-0.737 -1.521,-1.12 -2.744,-1.2 -1.394,-0.09 -1.998,-0.697 -3.09,-1.585 -1.366,-1.111 -2.694,-1.795 -4.331,-2.359 l -1.851,-1.85 c -1.326,-1.327 -2.617,-2.362 -4.168,-3.396 -1.289,-0.644 -2.437,-1.447 -3.558,-2.358 -7.935,-6.452 -14.09,-14.361 -20.128,-22.486 -3.264,-4.39 -5.679,-9.1 -8.419,-13.827 -2.683,-4.625 -5.227,-9.26 -6.995,-14.333 -1.34,-3.847 -2.878,-7.584 -4.676,-11.243 -1.732,-3.527 -2.926,-6.739 -3.865,-10.585 -0.659,-2.699 -1.701,-6.124 -2.316,-7.611 -2.809,-6.792 -3.736,-14.503 -4.703,-21.725 -0.94,-7.028 -2.098,-14.003 -3.289,-20.994 -0.071,-1.7 -0.141,-3.401 -0.212,-5.102 0.044,0 0.088,0 0.132,0 0,-9.014 0,-18.027 0,-27.04 0,-3.632 0.48,-7.207 0.872,-10.818 0.635,0 0.464,-2.74 0.509,-3.324 1.026,-13.026 4.019,-26.032 6.426,-38.862 1.794,-4.83 3.412,-9.69 4.982,-14.599 1.51,-4.719 3.578,-9.935 4.595,-11.589 1.148,-1.867 2.292,-4.184 3.011,-6.1 1.462,-3.91 3.184,-7.763 5.02,-11.571 -0.878,-0.515 -1.695,-1.136 -2.452,-1.841 -0.119,-0.095 -0.256,-0.207 -0.418,-0.336 -2.053,-1.663 -4.054,-3.644 -5.688,-5.867 -0.217,0.331 -0.429,0.661 -0.632,0.991 l -2.664,4.596 c -4.604,7.941 -8.09,16.784 -11.71,25.23 -1.055,2.462 -2.216,4.856 -3.396,7.259 -0.607,2.253 -1.355,4.231 -2.359,6.355 -1.429,3.022 -2.247,6.028 -3.091,9.27 -1.498,5.754 -3.518,11.262 -5.368,16.906 -0.624,4.516 -1.694,8.796 -3.09,13.133 -0.858,5.521 -1.716,11.041 -2.575,16.561 -0.543,6.743 -1.085,13.484 -1.628,20.227 l -0.217,0.108 c -0.216,0.108 -0.216,0.108 -0.216,0.108 v 12.361 c 1.2,2.8 0.773,6.366 0.773,9.352 0.792,6.338 1.593,12.64 2.704,18.93 1.264,7.16 3.103,14.152 4.676,21.246 1.304,5.879 2.981,11.779 6.141,16.916 1.147,1.867 2.291,4.184 3.01,6.1 3.27,8.723 7.648,17.2 12.442,25.191 1.003,1.669 1.898,3.371 2.786,5.103 1.234,1.233 2.468,2.468 3.701,3.701 1.433,2.731 3.224,5.293 5.063,7.767 0.616,0.828 1.29,2.004 1.5,2.613 0.858,2.493 3.39,4.64 5.028,6.617 7.824,9.78 16.808,18.352 25.658,27.203 l 2.704,2.317 c 2.4,2.058 4.827,4.082 7.26,6.1 2.343,1.774 4.654,3.579 6.954,5.408 1.837,1.247 3.626,2.539 5.408,3.864 1.158,0.772 2.318,1.546 3.477,2.318 1.064,0.709 2.116,1.436 3.168,2.164 1.812,0.905 3.592,1.814 5.331,2.858 10.761,6.455 22.152,11.746 33.69,16.691 3.366,1.345 6.619,2.859 9.891,4.417 8.613,3.124 17.295,6.002 25.957,8.983 6.388,2.199 13.236,3.425 19.783,5.063 11.472,2.085 23.02,3.348 34.608,4.634 l 0.812,0.387 c 0.041,0.387 0.813,0.387 0.813,0.387 h 13.135 c 2.191,-0.94 4.704,-0.774 7.035,-0.774 5.354,-0.514 10.709,-1.029 16.064,-1.545 4.121,-0.257 8.241,-0.515 12.362,-0.772 0.475,-0.988 2.972,-0.529 3.956,-0.58 10.224,-0.523 20.491,-2.06 30.588,-3.709 4.878,-0.798 9.6,-1.927 14.295,-3.438 l 5.021,-1.198 c 4.659,-1.114 9.374,-2.319 13.442,-4.982 4.304,-2.818 9.258,-4.768 13.906,-6.953 1.971,-1.011 3.443,-1.897 5.023,-3.477 0.969,-0.97 1.872,-1.864 3.009,-2.623 0.906,-0.604 1.814,-0.835 2.866,-0.935 2.158,-2.157 4.41,-4.113 6.793,-6.02 l 0.08,-0.08 c 3.187,-3.185 6.651,-6.136 9.964,-9.19 5.928,-5.928 11.699,-11.947 17.16,-18.318 3.883,-4.529 7.345,-9.336 11.025,-14.018 0.983,-1.251 1.558,-2.67 2.11,-4.138 1.233,-1.234 2.468,-2.468 3.701,-3.701 0.588,-1.12 1.215,-2.112 1.972,-3.131 0.737,-0.992 1.12,-1.522 1.2,-2.745 0.149,-2.299 1.909,-4.241 3.091,-6.18 3.27,-5.371 5.968,-10.691 7.806,-16.692 0.774,-1.803 1.546,-3.605 2.319,-5.408 3.795,-8.088 5.029,-16.837 6.953,-25.496 2.404,-9.961 3.398,-20.071 4.67,-30.217 -0.115,-1.379 0.655,-3.696 0.655,-5.242 v -26.269 c -0.422,-0.991 -0.77,-3.153 -0.77,-4.804 0,-7.815 -1.285,-15.736 -2.317,-23.476 -1.508,-11.304 -4.236,-22.456 -6.608,-33.608 -1.304,-6.129 -3.142,-11.905 -5.674,-17.608 l -2.548,-8.54 c -2.457,-8.237 -2.624,-8.539 -4.717,-8.539 -7.267,0 -14.679,1.718 -21.871,2.704 -17.692,2.428 -35.3,5.243 -52.926,8.112 -7.468,1.546 -14.938,3.091 -22.407,4.636 -7.799,2.055 -15.568,3.834 -23.484,5.408 -6.632,1.32 -13.933,3.232 -16.225,4.25 -3.355,1.489 -6.806,2.509 -10.351,3.396 -9.272,3.09 -18.544,6.181 -27.815,9.272 -2.745,0.812 -5.489,1.625 -8.234,2.438 -3.824,1.132 -7.295,3.084 -10.776,4.982 -1.868,1.017 -3.751,1.892 -4.184,1.941 -0.434,0.051 -1.476,-1.129 -2.319,-2.623 -2.744,-4.868 -4.831,-10.136 -7.1,-15.237 -0.745,-1.519 -1.491,-3.037 -2.237,-4.555 -1.248,-2.741 -2.026,-5.358 -2.747,-8.309 -0.657,-2.699 -1.7,-6.123 -2.315,-7.611 -2.734,-6.608 -4.096,-14.197 -5.022,-21.246 -0.448,-3.399 -1.316,-8.092 -1.932,-10.43 -0.615,-2.337 -1.988,-9.638 -3.05,-16.225 -2.284,-14.153 -5.154,-28.085 -8.805,-41.945 l -0.079,-1.719 c -0.069,-1.503 -0.568,-1.752 -3.944,-1.972 -0.314,-0.021 -0.63,-0.039 -0.945,-0.053 z m -121.429,8.717 c 0.1,-0.115 0.197,-0.227 0.294,-0.337 6.004,-7.204 12.848,-13.62 19.478,-20.25 l 2.704,-2.317 c 4.345,-3.724 8.905,-6.989 13.481,-10.389 4.636,-3.45 9.647,-6.21 14.801,-8.722 -0.205,-0.566 -0.38,-1.189 -0.533,-1.898 -0.041,-0.191 -0.083,-0.383 -0.121,-0.574 -0.008,-0.012 -0.016,-0.024 -0.023,-0.034 -1.943,-2.999 -3.041,-6.122 -3.68,-9.632 -0.299,-1.642 -0.572,-3.395 -0.917,-5.146 -1.424,0.598 -2.847,1.182 -4.239,1.79 l -1.851,1.504 c -1.366,1.11 -2.693,1.794 -4.33,2.358 l -1.466,1.464 c -1.41,1.412 -2.961,2.588 -4.554,3.783 -13.504,10.803 -24.262,24.675 -35.236,37.939 -0.714,0.857 -1.4,1.73 -2.06,2.625 0.074,0.093 0.149,0.187 0.224,0.283 2.254,1.345 4.309,3.429 5.581,5.65 0.773,0.703 1.493,1.448 2.137,2.243 0.104,-0.115 0.208,-0.228 0.31,-0.34 z m 124.77,-76.133 c -0.99,0.425 -4.544,0.773 -7.894,0.773 -14.87,0 -29.762,2.401 -44.287,5.593 0.061,1.008 0.077,2.418 0.093,4.624 0,0.007 0,0.015 0,0.023 0.031,0.353 0.056,0.704 0.076,1.043 0.167,1.43 0.278,2.87 0.344,4.302 0.068,0.623 0.143,1.256 0.22,1.898 0.095,0.232 0.206,0.48 0.336,0.766 0.6,1.327 1.23,2.828 1.77,4.414 2.596,-0.658 5.225,-1.21 7.701,-1.884 1.803,-0.515 3.605,-1.03 5.408,-1.546 13.651,-4.39 28.311,-4.033 42.496,-4.554 16.588,0 33.049,5.101 49.063,8.925 2.97,0.709 5.665,1.481 8.458,2.704 2.048,0.897 4.039,1.684 6.182,2.319 2.162,0.64 3.829,1.478 5.754,2.662 4.506,2.772 9.742,4.406 14.6,6.487 19.498,8.999 38.696,18.563 57.642,28.667 5.061,2.7 9.772,5.58 14.213,9.19 4.691,4.69 9.38,9.38 14.069,14.07 l 1.891,2.277 c 5.487,6.605 10.271,13.685 15.027,20.82 1.202,1.736 2.145,3.516 3.09,5.408 1.34,1.708 4.007,-0.087 5.596,-0.867 5.108,-2.508 10.656,-3.901 16.119,-5.394 1.288,-0.774 2.576,-1.546 3.864,-2.319 1.26,-0.745 2.521,-1.491 3.781,-2.237 3.868,-3.438 4.788,-7.747 3.864,-12.828 -0.89,-4.9 -2.624,-9.408 -4.676,-13.907 -1.288,-2.821 -3.13,-5.021 -5.288,-7.179 -0.196,-0.622 -0.392,-1.245 -0.588,-1.868 l -3.65,-3.396 c -6.008,-5.592 -12.536,-10.177 -19.254,-14.826 -1.381,-0.956 -2.901,-1.644 -4.404,-2.395 -2.674,-1.605 -5.372,-3.141 -8.112,-4.636 -2.474,-1.349 -4.905,-2.725 -7.3,-4.209 -1.848,-1.146 -3.386,-1.923 -3.904,-1.972 -0.517,-0.048 -2.054,-0.826 -3.902,-1.972 -1.903,-1.179 -3.812,-2.327 -5.755,-3.436 -3.247,-1.855 -6.441,-3.784 -9.619,-5.754 -6.636,-4.116 -14.19,-7.089 -21.368,-10.165 -2.461,-1.055 -4.856,-2.216 -7.26,-3.396 -3.792,-1.729 -7.708,-2.747 -11.73,-3.881 -4.642,-1.31 -9.656,-2.884 -11.143,-3.499 -6.653,-2.752 -14.195,-3.7 -21.248,-4.981 -8.212,-0.875 -16.409,-1.69 -24.644,-2.319 C 789.151,488.121 780.733,488 772.183,488 v -0.387 c 0,-0.386 0,-0.386 0,-0.386 z" />
    <path
       id="dp_path050"
       fill="#ebed22"
       fill-rule="evenodd"
       stroke="#000000"
       stroke-width="6.66667"
       d="m 1081.23,553.855 c -4.73,-0.23 -9.55,0.146 -14.12,1.386 -1.49,0.403 -3.82,0.504 -5.19,0.226 -1.84,-0.376 -2.54,-0.19 -2.84,1.537 0,11.269 3.23,22.539 5.83,33.433 2.24,9.386 6.13,17.895 10.31,26.495 2.61,6.533 5.59,12.911 8.5,19.316 0.43,2.491 2.06,4.788 3.17,7.035 1.66,3.354 3.57,7.701 4.25,9.657 2.16,6.183 4.88,12.316 7.77,18.199 0.99,2.013 1.83,4.057 2.66,6.14 1.8,3.697 2.76,7.542 3.87,11.509 0.54,1.977 -1.48,2.609 -3.18,3.248 -2.38,0.893 -4.77,1.743 -7.17,2.547 -3.21,1.068 -6.5,1.602 -9.82,2.093 -3.16,0.901 -6.22,1.857 -9.28,3.049 -7.32,2.852 -15.67,4.912 -23.48,5.755 -5.42,0.584 -10.6,2.3 -15.8,3.823 -5.72,1.674 -11.59,2.708 -17.42,3.904 -7.49,1.532 -15.48,3.617 -17.78,4.636 -6.391,2.84 -13.278,4.934 -20.083,6.568 -1.958,0.469 -4.566,1.512 -5.796,2.317 -3.678,2.408 -7.918,3.999 -11.935,5.755 -3.356,1.465 -6.499,3.284 -9.699,5.062 -2.513,1.288 -4.685,2.856 -6.873,4.636 5.641,6.396 8.773,14.964 12.363,22.487 0.857,1.037 1.716,2.073 2.573,3.109 4.987,3.918 12.6,1.902 18.288,0.674 6.365,-2.387 12.396,-5.446 18.463,-8.499 1.969,-1.011 3.439,-1.897 5.019,-3.477 0.97,-0.97 1.87,-1.864 3.01,-2.624 0.91,-0.603 1.82,-0.835 2.87,-0.934 1.23,-1.234 2.47,-2.468 3.7,-3.701 0.57,-0.055 1.14,-0.108 1.71,-0.163 1.23,-1.233 2.46,-2.466 3.7,-3.701 0.96,-0.091 1.75,-0.209 2.48,-0.935 1.53,-1.534 3.42,-3.122 5.33,-4.168 0.46,-0.257 1.68,-1.126 2.7,-1.932 5.92,-4.681 13.32,-7.081 20.17,-10.125 3.23,-1.437 6.4,-2.988 9.58,-4.555 1.8,-0.772 3.6,-1.545 5.41,-2.317 2.39,-0.827 4.72,-1.628 6.99,-2.745 3.03,-1.488 6.06,-2.642 9.31,-3.518 4.77,-2.262 9.68,-4.068 14.71,-5.689 4.66,-1.501 9.67,-2.943 11.13,-3.205 3.39,-0.607 4.75,0.864 6.1,3.566 2.68,5.344 5.01,10.862 7.47,16.307 0.74,1.519 1.49,3.037 2.23,4.555 1.57,3.437 2.5,6.926 3.5,10.585 1.1,3.996 2.67,9.005 3.5,11.131 2.4,6.164 3.5,12.764 4.63,19.274 0.74,4.218 1.85,8.218 3.05,12.323 0.81,3.625 1.62,7.211 2.67,10.776 1.79,6.129 2.95,12.421 4.29,18.665 1.24,5.211 2.52,10.399 4.33,15.452 1.59,4.456 3.46,8.632 5.75,12.75 1,1.785 1.88,3.562 2.7,5.434 0.94,2.163 1.52,2.636 2.74,2.278 3.49,-1.018 6.76,-2.87 10.06,-4.398 l 1.15,-1.158 c 1.03,-1.03 1.31,-1.274 2.45,-2.187 0.7,-0.567 1.38,-2.305 1.5,-3.864 0.12,-1.559 -0.65,-9.093 -1.71,-16.743 -0.98,-7.093 -1.97,-14.178 -3.13,-21.248 -1.21,-7.394 -2.79,-14.898 -5.41,-21.938 -1.09,-2.95 -2.24,-5.876 -3.39,-8.806 -1.26,-3.186 -2.49,-6.873 -2.75,-8.193 -0.26,-1.319 -1.3,-3.753 -2.32,-5.408 -1.14,-1.867 -2.29,-4.184 -3.01,-6.1 -5.16,-13.769 -12.82,-26.395 -19.36,-39.511 -1.51,-3.033 -2.94,-6.298 -3.18,-7.257 -0.36,-1.473 0.12,-1.997 3.06,-3.372 1.92,-0.895 4.39,-1.837 5.5,-2.095 2.19,-0.509 4.15,-1.637 6.1,-2.708 3.27,-0.798 6.54,-1.597 9.82,-2.394 5.39,-1.619 10.79,-3.187 16.21,-4.718 5.75,-0.694 11.5,-1.39 17.23,-2.156 23.73,-3.162 47.75,-3.09 71.64,-3.09 4.63,-0.258 9.27,-0.515 13.9,-0.774 4.38,0 8.76,0 13.14,0 8.88,-0.682 17.73,-1.576 26.59,-2.502 l 0.57,2.065 c 1.34,4.84 1.52,10.056 2.12,15.037 1.9,16.187 2.32,32.546 2.32,48.839 -1.56,14.039 -3.67,27.899 -6.61,41.723 -1.39,6.53 -3.08,12.673 -5.72,18.768 -0.82,1.912 -1.89,5.077 -2.35,7.034 -0.95,3.944 -2.73,7.392 -4.68,10.898 -3.4,6.106 -6.22,12.546 -9.23,18.849 -0.8,1.572 -1.6,3.144 -2.4,4.716 -1.24,1.235 -2.47,2.468 -3.7,3.703 -0.79,1.185 -1.56,2.361 -1.88,3.776 -0.55,2.39 -2.83,4.402 -4.3,6.268 -1.57,2.09 -3.15,4.177 -4.72,6.262 -6.66,8.019 -14.35,15.119 -21.72,22.487 -1.51,1.261 -3.03,2.521 -4.55,3.783 -1.69,1.274 -3.37,2.552 -5.02,3.862 -1.14,0.896 -2.3,1.708 -3.56,2.399 l -1.51,1.119 c -3.39,2.522 -7.1,4.322 -10.73,6.486 -4.07,2.423 -8.24,4.827 -12.79,6.222 -1.53,0.469 -3.71,1.358 -4.83,1.974 -4.96,2.714 -11.04,4.002 -16.5,5.366 -10.48,2.621 -21.19,3.762 -31.9,5.022 -12.69,1.494 -25.63,1.546 -38.41,1.546 -11.7,-1.3 -23.21,-3.255 -34.61,-6.182 -4.83,-1.997 -9.72,-3.673 -14.68,-5.328 -2.78,-0.541 -5.35,-1.273 -7.8,-2.784 -1.86,-1.141 -4.5,-2.444 -6.88,-3.396 -15.16,-6.064 -29.38,-14.109 -43.35,-22.488 -1.77,-0.912 -3.46,-1.862 -5.02,-3.13 -1.44,-1.172 -2.12,-1.6 -3.09,-1.932 -0.96,-0.332 -1.65,-0.76 -3.09,-1.932 -1.37,-1.11 -2.69,-1.795 -4.331,-2.358 l -1.85,-1.852 c -0.97,-0.968 -1.872,-1.864 -3.01,-2.622 -0.637,-0.426 -1.717,-0.81 -2.398,-0.854 -1.926,-0.125 -3.668,-2.509 -4.942,-3.782 -1.12,-0.588 -2.112,-1.214 -3.132,-1.972 -0.99,-0.738 -1.521,-1.12 -2.744,-1.2 -1.394,-0.091 -1.998,-0.698 -3.09,-1.586 -1.366,-1.109 -2.694,-1.794 -4.331,-2.358 l -1.851,-1.851 c -1.326,-1.327 -2.617,-2.361 -4.168,-3.396 -1.289,-0.644 -2.437,-1.447 -3.558,-2.359 -7.935,-6.45 -14.09,-14.361 -20.128,-22.486 -3.264,-4.39 -5.679,-9.1 -8.419,-13.827 -2.683,-4.627 -5.227,-9.261 -6.995,-14.335 -1.34,-3.848 -2.878,-7.585 -4.676,-11.244 -1.732,-3.525 -2.926,-6.738 -3.865,-10.585 -0.659,-2.699 -1.701,-6.124 -2.316,-7.612 -2.809,-6.792 -3.736,-14.503 -4.703,-21.725 -0.94,-7.03 -2.098,-14.004 -3.289,-20.995 -0.071,-1.701 -0.141,-3.403 -0.212,-5.103 0.044,0 0.088,0 0.132,0 0,-9.014 0,-18.028 0,-27.042 0,-3.632 0.48,-7.207 0.872,-10.818 0.635,0 0.464,-2.741 0.509,-3.324 1.026,-13.028 4.019,-26.033 6.426,-38.865 1.794,-4.831 3.412,-9.689 4.982,-14.6 1.51,-4.719 3.578,-9.935 4.595,-11.589 1.148,-1.867 2.292,-4.184 3.011,-6.1 1.416,-3.78 3.072,-7.508 4.84,-11.194 -0.224,-0.309 -0.415,-0.629 -0.568,-0.957 -1.82,-3.892 -3.442,-7.207 -5.935,-10.361 -0.811,1.329 -1.72,2.616 -2.507,3.886 l -2.664,4.596 c -4.604,7.942 -8.09,16.786 -11.71,25.232 -1.055,2.462 -2.216,4.856 -3.396,7.26 -0.607,2.254 -1.355,4.231 -2.359,6.354 -1.429,3.022 -2.247,6.029 -3.091,9.272 -1.498,5.754 -3.518,11.262 -5.368,16.905 -0.624,4.517 -1.694,8.797 -3.09,13.136 -0.858,5.52 -1.716,11.041 -2.575,16.561 -0.543,6.743 -1.085,13.486 -1.628,20.228 l -0.217,0.108 c -0.216,0.108 -0.216,0.108 -0.216,0.108 v 12.363 c 1.2,2.799 0.773,6.365 0.773,9.352 0.792,6.337 1.593,12.64 2.704,18.931 1.264,7.16 3.103,14.152 4.676,21.246 1.304,5.879 2.981,11.78 6.141,16.919 1.147,1.865 2.291,4.184 3.01,6.1 3.27,8.723 7.648,17.2 12.442,25.192 1.003,1.668 1.898,3.371 2.786,5.103 1.234,1.233 2.468,2.468 3.701,3.701 1.433,2.731 3.224,5.293 5.063,7.767 0.616,0.828 1.29,2.004 1.5,2.613 0.858,2.495 3.39,4.64 5.028,6.619 7.824,9.78 16.808,18.353 25.658,27.204 l 2.704,2.317 c 2.4,2.057 4.827,4.081 7.26,6.101 2.343,1.772 4.654,3.579 6.954,5.408 1.837,1.246 3.626,2.539 5.408,3.863 1.158,0.773 2.318,1.545 3.477,2.319 1.064,0.709 2.116,1.434 3.168,2.162 1.812,0.907 3.592,1.816 5.331,2.86 10.761,6.456 22.151,11.747 33.691,16.692 3.36,1.346 6.62,2.859 9.89,4.418 8.61,3.124 17.29,6.001 25.96,8.982 6.39,2.199 13.23,3.427 19.78,5.063 11.47,2.085 23.02,3.348 34.61,4.636 l 0.81,0.385 c 0.04,0.387 0.81,0.387 0.81,0.387 h 13.14 c 2.19,-0.939 4.7,-0.772 7.03,-0.772 5.36,-0.515 10.71,-1.031 16.07,-1.545 4.12,-0.258 8.24,-0.516 12.36,-0.774 0.47,-0.988 2.97,-0.528 3.96,-0.578 10.22,-0.524 20.49,-2.062 30.58,-3.711 4.88,-0.797 9.6,-1.927 14.3,-3.436 l 5.02,-1.2 c 4.66,-1.112 9.37,-2.319 13.44,-4.981 4.3,-2.819 9.26,-4.768 13.91,-6.955 1.97,-1.011 3.44,-1.896 5.02,-3.476 0.97,-0.969 1.87,-1.865 3.01,-2.624 0.9,-0.603 1.81,-0.835 2.86,-0.935 2.16,-2.157 4.42,-4.113 6.8,-6.018 l 0.08,-0.082 c 3.18,-3.185 6.65,-6.136 9.96,-9.19 5.93,-5.93 11.7,-11.948 17.16,-18.319 3.88,-4.529 7.35,-9.336 11.03,-14.02 0.98,-1.251 1.55,-2.669 2.11,-4.137 1.23,-1.234 2.46,-2.468 3.7,-3.702 0.59,-1.12 1.21,-2.112 1.97,-3.132 0.74,-0.99 1.12,-1.521 1.2,-2.744 0.15,-2.298 1.91,-4.241 3.09,-6.181 3.27,-5.369 5.97,-10.689 7.81,-16.692 0.77,-1.803 1.54,-3.605 2.32,-5.409 3.79,-8.088 5.03,-16.838 6.95,-25.498 2.4,-9.961 3.4,-20.07 4.67,-30.218 -0.12,-1.379 0.66,-3.696 0.66,-5.242 v -26.27 c -0.43,-0.991 -0.78,-3.154 -0.78,-4.806 0,-7.813 -1.28,-15.736 -2.31,-23.476 -1.51,-11.305 -4.24,-22.457 -6.61,-33.61 -1.31,-6.13 -3.14,-11.907 -5.67,-17.61 l -2.55,-8.54 c -2.46,-8.237 -2.63,-8.538 -4.72,-8.538 -7.27,0 -14.68,1.717 -21.87,2.704 -17.69,2.428 -35.3,5.244 -52.93,8.113 -7.47,1.545 -14.93,3.089 -22.4,4.636 -7.8,2.053 -15.57,3.833 -23.49,5.408 -6.63,1.319 -13.93,3.232 -16.22,4.249 -3.36,1.49 -6.81,2.51 -10.35,3.396 -9.28,3.091 -18.55,6.182 -27.82,9.272 -2.74,0.814 -5.49,1.626 -8.23,2.439 -3.83,1.133 -7.3,3.085 -10.78,4.983 -1.87,1.017 -3.75,1.892 -4.18,1.941 -0.44,0.051 -1.48,-1.131 -2.32,-2.624 -2.75,-4.867 -4.83,-10.136 -7.1,-15.237 -0.75,-1.519 -1.49,-3.038 -2.24,-4.556 -1.25,-2.742 -2.02,-5.359 -2.75,-8.308 -0.65,-2.699 -1.7,-6.124 -2.31,-7.612 -2.74,-6.61 -4.1,-14.199 -5.02,-21.247 -0.45,-3.4 -1.32,-8.095 -1.94,-10.432 -0.61,-2.336 -1.98,-9.639 -3.04,-16.225 -2.29,-14.154 -5.16,-28.087 -8.81,-41.947 l -0.08,-1.72 c -0.07,-1.503 -0.57,-1.752 -3.94,-1.972 -0.32,-0.021 -0.63,-0.039 -0.95,-0.053 z m 3.34,-67.419 c -0.99,0.424 -4.54,0.772 -7.89,0.772 -16.4,0 -32.82,2.924 -48.75,6.597 -4.73,1.09 -9.63,2.362 -13.75,5.034 -4.03,2.62 -8.73,4.304 -13.13,6.221 l -1.853,1.505 c -1.366,1.11 -2.693,1.795 -4.33,2.358 l -1.466,1.465 c -1.41,1.412 -2.961,2.587 -4.554,3.783 -13.504,10.802 -24.262,24.674 -35.236,37.94 -0.119,0.141 -0.235,0.284 -0.35,0.428 1.384,1.118 2.702,2.449 3.935,3.858 0.128,0.076 0.259,0.15 0.392,0.224 1.428,0.796 1.428,0.796 1.592,1.184 0.131,0.307 0.58,0.908 2.143,2.864 0.016,0.02 0.033,0.042 0.05,0.064 5.686,-6.604 12.035,-12.584 18.202,-18.748 l 2.704,-2.317 c 4.345,-3.725 8.905,-6.989 13.481,-10.391 8.73,-6.49 18.79,-10.55 28.63,-15.106 l 2,-1.103 c 4.94,-2.717 11.12,-3.595 16.54,-5.079 1.8,-0.516 3.61,-1.03 5.41,-1.545 13.65,-4.392 28.31,-4.035 42.5,-4.556 16.58,0 33.05,5.103 49.06,8.927 2.97,0.709 5.66,1.48 8.46,2.704 2.05,0.897 4.04,1.682 6.18,2.317 2.16,0.641 3.83,1.48 5.75,2.664 4.51,2.771 9.74,4.405 14.6,6.487 19.5,9 38.7,18.564 57.64,28.669 5.07,2.699 9.78,5.579 14.22,9.191 4.69,4.689 9.38,9.38 14.07,14.069 l 1.89,2.277 c 5.48,6.607 10.27,13.687 15.02,20.822 1.21,1.737 2.15,3.516 3.1,5.408 1.34,1.708 4,-0.086 5.59,-0.866 5.11,-2.509 10.66,-3.901 16.12,-5.396 1.29,-0.773 2.58,-1.545 3.86,-2.318 1.26,-0.746 2.53,-1.491 3.79,-2.238 3.86,-3.437 4.78,-7.746 3.86,-12.829 -0.89,-4.9 -2.62,-9.408 -4.68,-13.907 -1.28,-2.822 -3.13,-5.021 -5.28,-7.178 -0.2,-0.624 -0.4,-1.247 -0.59,-1.87 l -3.65,-3.396 c -6.01,-5.592 -12.54,-10.177 -19.26,-14.828 -1.38,-0.956 -2.9,-1.644 -4.4,-2.394 -2.68,-1.606 -5.37,-3.142 -8.11,-4.636 -2.48,-1.35 -4.91,-2.724 -7.3,-4.21 -1.85,-1.145 -3.39,-1.922 -3.91,-1.972 -0.51,-0.048 -2.05,-0.825 -3.9,-1.972 -1.9,-1.178 -3.81,-2.326 -5.75,-3.436 -3.25,-1.854 -6.45,-3.784 -9.62,-5.754 -6.64,-4.115 -14.19,-7.09 -21.37,-10.166 -2.46,-1.054 -4.86,-2.216 -7.26,-3.396 -3.79,-1.729 -7.71,-2.746 -11.73,-3.881 -4.64,-1.309 -9.66,-2.884 -11.14,-3.499 -6.66,-2.753 -14.2,-3.7 -21.25,-4.982 -8.21,-0.874 -16.41,-1.69 -24.65,-2.319 -8.53,-0.651 -16.94,-0.772 -25.49,-0.772 v -0.387 c 0,-0.385 0,-0.385 0,-0.385 z" />
    <path
       id="dp_path051"
       fill="#000000"
       fill-rule="evenodd"
       stroke="none"
       stroke-width="0"
       d="m 869.628,219.176 c 4.36,-3.339 -1.704,-13.816 5.552,-13.055 5.879,0.618 7.973,8.222 11.439,12.836 7.218,9.612 13.877,19.719 23.6,27.134 1.97,1.501 4.133,2.888 6.417,3.81 8.593,3.471 13.205,0.415 13.567,-8.782 0.13,-3.344 -0.006,-6.723 0.448,-10.02 0.31,-2.264 1.192,-4.672 3.852,-5.376 2.396,-0.634 4.113,0.7 5.709,2.337 6.825,7.003 11.079,15.856 16.992,23.509 2.069,2.676 3.824,5.887 7.86,6.232 3.769,-6.165 -5.541,-17.622 2.875,-19.417 6.946,-1.483 10.282,7.529 14.236,12.403 9.766,12.038 13.904,25.681 15.217,41.301 1.221,14.524 8.918,26.517 24.818,30.455 0.16,0.038 0.33,0.102 0.45,0.208 13.16,11.252 29.89,6.922 44.88,10.232 1.04,0.232 2.36,-0.056 3.38,-0.502 16.86,-7.382 31.8,-16.858 39.74,-34.644 3.66,-8.202 7.68,-16.298 12.77,-23.764 2.16,-3.18 4.66,-7.822 9.18,-6.646 5.92,1.541 2.63,8.358 1.9,12.568 -1.01,5.869 -2.92,11.586 -4.46,17.364 -0.44,1.644 -0.88,3.266 0.95,4.808 6.21,-0.774 10.09,-4.871 13.25,-9.96 7.89,-12.72 10.37,-27.243 13.86,-41.439 0.88,-3.544 1.88,-7.072 3.12,-10.501 0.94,-2.602 2.74,-4.939 5.77,-4.675 3.09,0.269 3.54,3.228 3.99,5.652 1.64,8.795 1.04,17.604 -0.15,26.392 -0.34,2.469 -0.87,4.912 0.06,7.787 4.81,0.07 6.97,-3.388 8.84,-6.807 5.77,-10.553 7.28,-22.383 9.85,-33.895 1.28,-5.781 -0.23,-13.774 4.95,-16.908 5.07,-3.07 8.73,1.972 8.93,8.523 0.16,5.507 -0.13,11.028 -0.25,16.544 -0.06,2.669 -0.23,5.349 1.65,7.892 6.44,-0.291 10.11,-4.831 13.06,-9.585 11.28,-18.198 19.3,-37.966 27.03,-57.846 0.72,-1.858 1.37,-3.75 2.02,-5.634 1.03,-2.934 2.37,-5.972 5.82,-6.119 3.77,-0.161 6.54,2.083 8.24,5.52 4.24,8.595 3.17,17.664 1.72,26.513 -1.26,7.675 -3.86,15.123 -5.62,22.727 -0.86,3.728 -1.07,7.565 2.67,10.7 3.78,-4.535 1.84,-11.555 7.38,-15.311 7.9,2.826 10.45,9.727 11.19,16.779 3,28.588 -4.35,54.864 -19.84,78.792 -5.27,8.149 -14.79,11.811 -22.24,17.689 -15.46,12.2 -30.7,24.931 -49.3,32.206 -13.67,5.345 -28.73,5.606 -42.52,10.573 -12.48,4.496 -25.73,3.148 -38.42,5.896 -3.05,0.659 -5.66,1.829 -8.22,3.316 0.24,19.809 -0.37,31.115 30.79,35.245 4.09,4.884 4.39,11.151 4.54,16.956 0.62,24.771 0.03,49.698 -9.58,72.91 -10.99,26.548 -29.76,46.945 -54.83,61.158 -9.25,5.248 -13.99,3.868 -20.65,-4.472 -4.53,-5.668 -7.82,-12.053 -10.17,-18.86 -4.31,-12.486 -11.84,-22.776 -21.34,-31.674 -8.46,-7.927 -13.92,-17.266 -15.63,-28.836 -0.46,-3.067 -1.654,-6.118 -3.001,-8.943 -3.193,-6.693 -7.425,-7.779 -13.734,-3.92 -2.974,1.819 -6.176,3.307 -8.96,5.371 -3.695,2.738 -7.576,3.56 -11.74,1.846 -4.152,-1.709 -3.506,-5.593 -3.282,-8.802 -1.441,-2.803 -3.813,-4.087 -5.912,-2.432 -11.537,9.089 -23.746,8.582 -34.642,0.445 -6.394,-4.773 -12.87,-9.712 -18.704,-14.98 -5.384,-16.188 5.398,-43.555 20.532,-53.851 14.114,-9.601 30.197,-14.753 46.192,-19.964 12.166,-3.964 22.442,-10.117 28.977,-21.96 -1.891,-5.549 -5.059,-9.681 -12.035,-10.465 -3.462,-0.388 -7.253,-2.063 -9.945,-4.299 -7.637,-6.34 -16.48,-9.472 -25.804,-12.308 -13.895,-4.226 -26.819,-10.458 -38.447,-19.669 -7.364,-5.833 -16.109,-10.096 -24.624,-14.271 -28.649,-14.046 -44.008,-38.214 -52.99,-67.642 -3.318,-10.872 -5.731,-21.875 -7.064,-33.119 -0.62,-5.231 -0.595,-11.152 2.797,-15.075 4.145,-4.794 6.336,-6.644 11.063,-2.694 6.636,5.542 11.013,12.924 15.79,19.973 3.088,4.555 6.214,9.088 9.444,13.543 1.04,1.433 2.155,3.054 4.747,2.977 z" />
    <g
       aria-label="2022"
       transform="matrix(0.806871,-0.71708801,0.383413,1.0118845,23.599821,308.53305)"
       id="text944"
       style="font-style:normal;font-variant:normal;font-weight:normal;font-stretch:normal;font-size:40px;line-height:1.25;font-family:'Adventurer Black SF';-inkscape-font-specification:'Adventurer Black SF';white-space:pre;shape-inside:url(#rect946);fill:#000000;fill-opacity:1;stroke:none">
      <path
         d="m 72.208984,281.34497 -4.96875,5.57812 4.96875,0.1875 h 2.484375 q 9.984375,0 16.921875,-0.75 1.734375,-0.1875 2.484375,-0.1875 8.250001,0 8.250001,6.14063 0,3.42187 -1.125,6.89062 l -0.23438,0.5625 -2.296871,7.5 q -2.484375,8.0625 -10.171875,8.67188 l -4.59375,0.375 h -0.984375 l -11.296875,0.5625 H 49.568359 l -8.25,-0.5625 q -4.453125,-0.375 -9.984375,-1.54688 -3.28125,-1.73437 -5.765625,-7.875 l -0.984375,-2.29687 -0.375,-0.5625 -1.921875,-4.64063 q -1.921875,-4.59375 -1.921875,-6.14062 0,-2.85938 15,-17.0625 24.1875,-22.875 41.25,-53.20313 3.09375,-5.39062 3.65625,-9.23437 0,-0.375 0,-0.75 0,-5.95313 -5.578125,-5.95313 -4.03125,0 -8.625,4.40625 l -1.921875,2.29688 -3.46875,5.39062 q -0.5625,1.35938 -6.328125,1.35938 -1.921875,0 -4.40625,-0.1875 l -7.5,-0.375 q -11.53125,-0.60938 -11.53125,-6.375 0,-4.03125 1.734375,-8.25 l 1.921875,-4.78125 q 5.578125,-14.01563 24.796875,-22.07813 9,-3.84375 20.71875,-3.84375 7.3125,0 13.078125,1.92188 21.656251,7.26562 21.656251,30.51562 0,15.5625 -9,32.0625 -5.39063,9.79688 -12.468751,18.60938 l -7.3125,9.04687 z"
         style="font-style:normal;font-variant:normal;font-weight:normal;font-stretch:normal;font-size:192px;font-family:'Balloonist SF';-inkscape-font-specification:'Balloonist SF'"
         id="path946" />
      <path
         d="m 142.66211,287.29809 q -2.34375,-10.35937 -2.34375,-25.92187 l 1.17187,-10.17188 q 1.54688,-13.82812 8.25,-31.26562 11.34375,-29.76563 33.04688,-40.54688 11.29687,-5.57812 22.07812,-5.57812 0.75,0 1.5,0 8.67188,0.42187 16.54688,5.39062 17.4375,11.34375 17.4375,40.73438 0,30.14062 -12.28125,56.4375 -7.875,16.875 -18.79688,26.85937 -15.75,14.39063 -28.59375,14.39063 -31.3125,0 -38.01562,-30.32813 z m 29.90625,-18.60937 v 3.46875 q 0,7.26562 3.46875,10.17187 1.92187,1.92188 4.82812,1.92188 6.89063,0 16.125,-16.54688 3.84375,-6.89062 6.32813,-15.32812 l 1.125,-3.84375 1.17187,-4.21875 0.9375,-4.40625 0.98438,-3.84375 1.54687,-8.48438 0.1875,-2.48437 0.1875,-4.40625 v -3.28125 q 0,-4.03125 -0.98437,-6.14063 -2.85938,-6.32812 -7.26563,-6.32812 -9.98437,0 -19.21875,22.82812 l -1.92187,4.82813 q -3.04688,7.6875 -4.59375,15.75 -2.90625,15.14062 -2.90625,20.34375 z"
         style="font-style:normal;font-variant:normal;font-weight:normal;font-stretch:normal;font-size:192px;font-family:'Balloonist SF';-inkscape-font-specification:'Balloonist SF'"
         id="path948" />
      <path
         d="m 315.58398,281.34497 -4.96875,5.57812 4.96875,0.1875 h 2.48438 q 9.98437,0 16.92187,-0.75 1.73438,-0.1875 2.48438,-0.1875 8.25,0 8.25,6.14063 0,3.42187 -1.125,6.89062 l -0.23438,0.5625 -2.29687,7.5 q -2.48438,8.0625 -10.17188,8.67188 l -4.59375,0.375 h -0.98437 l -11.29688,0.5625 h -22.07812 l -8.25,-0.5625 q -4.45313,-0.375 -9.98438,-1.54688 -3.28125,-1.73437 -5.76562,-7.875 l -0.98438,-2.29687 -0.375,-0.5625 -1.92187,-4.64063 q -1.92188,-4.59375 -1.92188,-6.14062 0,-2.85938 15,-17.0625 24.1875,-22.875 41.25,-53.20313 3.09375,-5.39062 3.65625,-9.23437 0,-0.375 0,-0.75 0,-5.95313 -5.57812,-5.95313 -4.03125,0 -8.625,4.40625 l -1.92188,2.29688 -3.46875,5.39062 q -0.5625,1.35938 -6.32812,1.35938 -1.92188,0 -4.40625,-0.1875 l -7.5,-0.375 q -11.53125,-0.60938 -11.53125,-6.375 0,-4.03125 1.73437,-8.25 l 1.92188,-4.78125 q 5.57812,-14.01563 24.79687,-22.07813 9,-3.84375 20.71875,-3.84375 7.3125,0 13.07813,1.92188 21.65625,7.26562 21.65625,30.51562 0,15.5625 -9,32.0625 -5.39063,9.79688 -12.46875,18.60938 l -7.3125,9.04687 z"
         style="font-style:normal;font-variant:normal;font-weight:normal;font-stretch:normal;font-size:192px;font-family:'Balloonist SF';-inkscape-font-specification:'Balloonist SF'"
         id="path950" />
      <path
         d="m 437.08398,281.34497 -4.96875,5.57812 4.96875,0.1875 h 2.48438 q 9.98437,0 16.92187,-0.75 1.73438,-0.1875 2.48438,-0.1875 8.25,0 8.25,6.14063 0,3.42187 -1.125,6.89062 l -0.23438,0.5625 -2.29687,7.5 q -2.48438,8.0625 -10.17188,8.67188 l -4.59375,0.375 h -0.98437 l -11.29688,0.5625 h -22.07812 l -8.25,-0.5625 q -4.45313,-0.375 -9.98438,-1.54688 -3.28125,-1.73437 -5.76562,-7.875 l -0.98438,-2.29687 -0.375,-0.5625 -1.92187,-4.64063 q -1.92188,-4.59375 -1.92188,-6.14062 0,-2.85938 15,-17.0625 24.1875,-22.875 41.25,-53.20313 3.09375,-5.39062 3.65625,-9.23437 0,-0.375 0,-0.75 0,-5.95313 -5.57812,-5.95313 -4.03125,0 -8.625,4.40625 l -1.92188,2.29688 -3.46875,5.39062 q -0.5625,1.35938 -6.32812,1.35938 -1.92188,0 -4.40625,-0.1875 l -7.5,-0.375 q -11.53125,-0.60938 -11.53125,-6.375 0,-4.03125 1.73437,-8.25 l 1.92188,-4.78125 q 5.57812,-14.01563 24.79687,-22.07813 9,-3.84375 20.71875,-3.84375 7.3125,0 13.07813,1.92188 21.65625,7.26562 21.65625,30.51562 0,15.5625 -9,32.0625 -5.39063,9.79688 -12.46875,18.60938 l -7.3125,9.04687 z"
         style="font-style:normal;font-variant:normal;font-weight:normal;font-stretch:normal;font-size:192px;font-family:'Balloonist SF';-inkscape-font-specification:'Balloonist SF'"
         id="path952" />
    </g>
    <text
       id="text954"
       y="951.59344"
       x="122.00006"
       style="font-style:normal;font-weight:normal;font-size:40px;line-height:1.25;font-family:sans-serif;fill:#000000;fill-opacity:1;stroke:none"
       xml:space="preserve"><tspan
         y="951.59344"
         x="122.00006"
         id="tspan952" /></text>
    <text
       style="font-style:normal;font-weight:normal;font-size:40px;line-height:1.25;font-family:sans-serif;white-space:pre;shape-inside:url(#rect958);fill:#000000;fill-opacity:1;stroke:none;"
       id="text956"
       xml:space="preserve"><tspan
         style="visibility:hidden"
         x="128.86523"
         y="1029.2823"><tspan
           dx="0 31.015625 11.015625 24.0625 24.0625 38.90625 24.921875 24.0625 11.015625 23.828125 25.3125 20.859375 14.0625 24.140625 11.015625 24.0625 20.859375 15.78125 11.015625 23.671875 24.921875 23.828125 25.3125 24.296875 11.015625 24.921875 23.828125 17.109375 23.828125 20.859375 14.0625 27.96875 24.0625 20.859375 25.3125 23.828125 11.015625 23.828125 23.28125 23.828125">Glaamdalens Plastikbeholderes Cacheleker</tspan></tspan></text>
    <g
       aria-label="Glaamadalens Plastikbeholderes Cacheleker"
       transform="matrix(1.5318804,0.00456003,-0.55815763,2.1498866,218.24015,670.65704)"
       id="text944-3"
       style="font-style:normal;font-variant:normal;font-weight:normal;font-stretch:normal;font-size:40px;line-height:1.25;font-family:'Adventurer Black SF';-inkscape-font-specification:'Adventurer Black SF';white-space:pre;shape-inside:url(#rect946-3);fill:#000000;fill-opacity:1;stroke:none">
      <path
         d="m 10.315234,132.24718 2.4,0.6 v 7.96 q -2.04,-0.64 -3.5599996,-0.64 -3.28,0 -4.72,0.48 -4.00000002,1.32 -4.80000002,4.64 -0.2,0.84 -0.2,1.6 0,1.64 1.08,3.36 2.08000002,3.32 5.72000002,3 l 0.92,-0.08 v -3.72 h -4.04 v -6.32 H 16.075234 v 16.72 q -3.52,1.84 -8.2399996,1.84 -1.72,0 -3.72,-0.24 -4.32000003,-0.52 -7.56,-2.24 -1.96,-1.04 -3.72,-2.88 -3.8800004,-4.08 -3.8800004,-9.24 0,-1.52 0.36,-3.28 1.8000004,-8.76 11.48000037,-11.28 2.60000003,-0.68 5.28000003,-0.68 2.64,0 4.2399996,0.4 z"
         id="path867" />
      <path
         d="m 28.130234,161.20718 h -9.2 v -28.8 h 9.2 z"
         id="path869" />
      <path
         d="m 37.359609,146.28718 q 1.08,-0.2 2.08,-0.2 1.76,0 3.44,0.72 v 4.76 q -0.28,-0.08 -0.92,0.12 -0.6,0.16 -0.84,0.32 -0.36,0.28 -0.36,0.72 0,0.88 0.92,1.04 0.48,0.08 0.92,0.08 1.72,0 1.72,-1.2 v -6.12 q 0,-2.44 -4.28,-2.44 -2.96,0 -6.64,1.08 v -6.4 q 3.76,-1.48 8.12,-1.48 3.16,0 5.84,0.92 3.28,1.12 4.76,3.32 0.8,1.2 1.24,3.32 0.2,0.96 0.2,1.72 v 14.64 h -14.32 q -0.64,0 -1.48,-0.16 -5.8,-1.12 -7.08,-5.88 -0.24,-0.88 -0.24,-1.72 0.04,-0.36 0.04,-0.56 0,-5.32 6.88,-6.6 z"
         id="path871" />
      <path
         d="m 62.750234,146.28718 q 1.08,-0.2 2.08,-0.2 1.76,0 3.44,0.72 v 4.76 q -0.28,-0.08 -0.92,0.12 -0.6,0.16 -0.84,0.32 -0.36,0.28 -0.36,0.72 0,0.88 0.92,1.04 0.48,0.08 0.92,0.08 1.72,0 1.72,-1.2 v -6.12 q 0,-2.44 -4.28,-2.44 -2.96,0 -6.64,1.08 v -6.4 q 3.76,-1.48 8.12,-1.48 3.16,0 5.84,0.92 3.28,1.12 4.76,3.32 0.8,1.2 1.24,3.32 0.2,0.96 0.2,1.72 v 14.64 h -14.32 q -0.64,0 -1.48,-0.16 -5.8,-1.12 -7.08,-5.88 -0.24,-0.88 -0.24,-1.72 0.04,-0.36 0.04,-0.56 0,-5.32 6.88,-6.6 z"
         id="path873" />
      <path
         d="m 104.82086,144.48718 q -1.24,-3.8 -4.04,-6.04 1.92,-1.32 5.92,-1.16 3.52,0.16 6.16,2.12 1.28,0.96 2.12,2.08 1.52,2.08 2.04,5.32 0.32,2.04 0.32,5.76 0,3.24 -1.12,7.44 l -0.32,1.2 h -9.96 l 0.48,-1.32 q 1.32,-3.64 1.32,-9.24 0,-4.12 -2.52,-4.92 z m -12.360001,1 0.04,-7.6 q 1.08,-0.4 2.28,-0.4 1.24,0 2.88,0.64 1.64,0.64 2.560001,1.48 4.08,3.8 4.08,9.84 v 1.6 l 0.04,1.4 q 0.08,2.6 -0.92,6.4 -0.28,1.08 -0.88,2.36 h -9.600001 l 0.16,-0.56 0.44,-1.76 q 1.04,-4.16 1.04,-7 0,-2.6 -0.28,-3.8 -0.44,-1.92 -1.84,-2.6 z m -10.64,15.72 v -23.32 h 9.2 v 23.32 z"
         id="path875" />
      <path
         d="m 126.26586,146.28718 q 1.08,-0.2 2.08,-0.2 1.76,0 3.44,0.72 v 4.76 q -0.28,-0.08 -0.92,0.12 -0.6,0.16 -0.84,0.32 -0.36,0.28 -0.36,0.72 0,0.88 0.92,1.04 0.48,0.08 0.92,0.08 1.72,0 1.72,-1.2 v -6.12 q 0,-2.44 -4.28,-2.44 -2.96,0 -6.64,1.08 v -6.4 q 3.76,-1.48 8.12,-1.48 3.16,0 5.84,0.92 3.28,1.12 4.76,3.32 0.8,1.2 1.24,3.32 0.2,0.96 0.2,1.72 v 14.64 h -14.32 q -0.64,0 -1.48,-0.16 -5.8,-1.12 -7.08,-5.88 -0.24,-0.88 -0.24,-1.72 0.04,-0.36 0.04,-0.56 0,-5.32 6.88,-6.6 z"
         id="path877" />
      <path
         d="m 153.49648,137.92718 q 2.12,-0.6 4.12,-0.6 v -4.92 h 9.2 v 28.8 h -10.76 q -0.64,0 -2.32,-0.44 -5,-1.32 -7.32,-5.4 -1.64,-2.88 -1.64,-6.04 0,-3.04 1.32,-5.48 2.44,-4.52 7.4,-5.92 z m 4.12,7.96 q -1.36,0.2 -2.2,1.32 -0.8,1.08 -0.8,2.52 0,0.68 0.36,1.44 1.04,2.12 2.64,1.88 z"
         id="path879" />
      <path
         d="m 176.03148,146.28718 q 1.08,-0.2 2.08,-0.2 1.76,0 3.44,0.72 v 4.76 q -0.28,-0.08 -0.92,0.12 -0.6,0.16 -0.84,0.32 -0.36,0.28 -0.36,0.72 0,0.88 0.92,1.04 0.48,0.08 0.92,0.08 1.72,0 1.72,-1.2 v -6.12 q 0,-2.44 -4.28,-2.44 -2.96,0 -6.64,1.08 v -6.4 q 3.76,-1.48 8.12,-1.48 3.16,0 5.84,0.92 3.28,1.12 4.76,3.32 0.8,1.2 1.24,3.32 0.2,0.96 0.2,1.72 v 14.64 h -14.32 q -0.64,0 -1.48,-0.16 -5.8,-1.12 -7.08,-5.88 -0.24,-0.88 -0.24,-1.72 0.04,-0.36 0.04,-0.56 0,-5.32 6.88,-6.6 z"
         id="path881" />
      <path
         d="m 204.30211,161.20718 h -9.2 v -28.8 h 9.2 z"
         id="path883" />
      <path
         d="m 219.29148,137.40718 q 3.68,0 6.2,1.6 v 6.88 l -1.56,-0.44 q -1.56,-0.44 -2.64,-0.44 h -0.48 q -1.8,0 -3.08,0.68 -0.8,0.52 -1.28,1.12 h 6.48 v 5.16 h -6.36 q 1.84,2.08 4.96,2.08 2.12,0 3.96,-0.92 v 7.36 l -1.48,0.56 q -1.68,0.64 -4.24,0.64 h -1.32 q -0.12,-0.04 -0.8,-0.16 -8.24,-1.44 -10.48,-8.44 -0.48,-1.48 -0.48,-2.64 0,-6.4 4.04,-9.96 2.48,-2.2 6.76,-2.92 0.96,-0.16 1.8,-0.16 z"
         id="path885" />
      <path
         d="m 238.71086,145.48718 0.04,-7.6 q 1.08,-0.4 2.28,-0.4 1.24,0 2.88,0.64 1.64,0.64 2.56,1.48 2.44,2.28 3.6,5.88 0.28,0.88 0.52,4.28 0.12,1.72 0.12,2.12 0,2.12 -0.84,6.2 -0.24,1.24 -0.96,3.12 h -9.72 l 0.16,-0.56 0.44,-1.76 q 1.04,-4.16 1.04,-7 0,-2.6 -0.28,-3.8 -0.44,-1.92 -1.84,-2.6 z m -10.64,15.72 v -23.32 h 9.2 v 23.32 z"
         id="path887" />
      <path
         d="m 261.66523,137.88718 h 9.56 v 7.48 l -7.84,0.08 5.88,3.28 q 1.24,0.68 2,2.08 0.76,1.4 0.76,2.88 0,3.28 -3.04,5.64 -1.72,1.32 -4.24,1.72 -1,0.16 -1.64,0.16 h -9.64 v -7.44 h 7.92 l -5.92,-3.32 q -2.56,-1.44 -2.56,-4.88 0,-3.72 2.56,-5.8 2.36,-1.88 6.2,-1.88 z"
         id="path889" />
      <path
         d="m 296.07398,161.20718 h -9.8 v -28.8 l 13.68,0.04 q 5.6,0 9.76,3.68 3.4,3 3.4,7.64 0,5 -4,8.4 -3.84,3.24 -8.92,3.24 -0.64,0 -1.16,-0.04 l -1.52,-0.12 v -8.08 l 0.88,0.08 q 1.88,0 3.08,-0.8 1.4,-0.92 1.4,-2.72 0,-2.2 -1.96,-3.12 -1.56,-0.76 -3.88,-0.56 l -0.96,0.08 z"
         id="path891" />
      <path
         d="m 324.06773,161.20718 h -9.2 v -28.8 h 9.2 z"
         id="path893" />
      <path
         d="m 333.29711,146.28718 q 1.08,-0.2 2.08,-0.2 1.76,0 3.44,0.72 v 4.76 q -0.28,-0.08 -0.92,0.12 -0.6,0.16 -0.84,0.32 -0.36,0.28 -0.36,0.72 0,0.88 0.92,1.04 0.48,0.08 0.92,0.08 1.72,0 1.72,-1.2 v -6.12 q 0,-2.44 -4.28,-2.44 -2.96,0 -6.64,1.08 v -6.4 q 3.76,-1.48 8.12,-1.48 3.16,0 5.84,0.92 3.28,1.12 4.76,3.32 0.8,1.2 1.24,3.32 0.2,0.96 0.2,1.72 v 14.64 h -14.32 q -0.64,0 -1.48,-0.16 -5.8,-1.12 -7.08,-5.88 -0.24,-0.88 -0.24,-1.72 0.04,-0.36 0.04,-0.56 0,-5.32 6.88,-6.6 z"
         id="path895" />
      <path
         d="m 360.72773,137.88718 h 9.56 v 7.48 l -7.84,0.08 5.88,3.28 q 1.24,0.68 2,2.08 0.76,1.4 0.76,2.88 0,3.28 -3.04,5.64 -1.72,1.32 -4.24,1.72 -1,0.16 -1.64,0.16 h -9.64 v -7.44 h 7.92 l -5.92,-3.32 q -2.56,-1.44 -2.56,-4.88 0,-3.72 2.56,-5.8 2.36,-1.88 6.2,-1.88 z"
         id="path897" />
      <path
         d="m 372.33398,145.92718 v -5.44 h 1.44 v -6.08 h 9.2 v 6.08 h 3.48 v 5.44 h -3.48 l 0.04,7.28 q 0,1.28 1.4,1.28 h 2.04 v 6.72 h -6.64 q -3.2,0 -4.88,-2.24 -1.16,-1.52 -1.16,-2.84 v -10.2 z"
         id="path899" />
      <path
         d="m 387.91461,161.20718 v -23.32 h 3.76 q -1.16,-0.2 -2.08,-0.88 -1.8,-1.36 -1.8,-3.6 0,-0.52 0.12,-1 h 9.2 q 0.12,0.48 0.12,1.04 0,2.92 -2.76,4.12 -0.56,0.24 -1.08,0.32 h 3.72 v 23.32 z"
         id="path901" />
      <path
         d="m 409.38023,161.20718 h -9.2 v -28.8 h 9.2 v 10.56 q 0.96,-0.92 2.08,-3.04 0,-0.04 1,-2.04 h 10.16 q -2.2,4.56 -6,8 2.52,3.88 4.92,12.36 0.28,0.96 0.8,2.96 h -9.4 q -0.44,-3.16 -3.56,-9 z"
         id="path903" />
      <path
         d="m 424.12648,150.28718 -0.04,-17.88 h 9.2 l -0.08,18 q 0,0.56 0.28,1.2 0.44,1.04 1.48,1.04 1.08,0 1.64,-1.32 0.44,-1.04 0.44,-2.28 0,-0.44 -0.08,-0.76 -0.56,-2.2 -2.24,-2.2 v -8.6 q 0.8,-0.08 1.2,-0.08 4.4,0 7.52,3.12 3.12,3.08 3.56,7.52 0.08,0.8 0.08,1.56 0,4.52 -3.2,8.2 -3.32,3.8 -7.76,3.8 -3,0 -4.44,-0.32 -2,-0.44 -3.92,-2 -3.64,-2.96 -3.64,-9 z"
         id="path905" />
      <path
         d="m 461.40086,137.40718 q 3.68,0 6.2,1.6 v 6.88 l -1.56,-0.44 q -1.56,-0.44 -2.64,-0.44 h -0.48 q -1.8,0 -3.08,0.68 -0.8,0.52 -1.28,1.12 h 6.48 v 5.16 h -6.36 q 1.84,2.08 4.96,2.08 2.12,0 3.96,-0.92 v 7.36 l -1.48,0.56 q -1.68,0.64 -4.24,0.64 h -1.32 q -0.12,-0.04 -0.8,-0.16 -8.24,-1.44 -10.48,-8.44 -0.48,-1.48 -0.48,-2.64 0,-6.4 4.04,-9.96 2.48,-2.2 6.76,-2.92 0.96,-0.16 1.8,-0.16 z"
         id="path907" />
      <path
         d="m 470.18023,161.20718 v -28.8 h 9.2 v 28.8 z m 13.04,-9.76 q 0,-2.12 -0.36,-3.16 -0.52,-1.52 -2.04,-2.32 v -8.2 q 0.96,-0.28 2.04,-0.28 4.12,0 7.08,3.68 2.52,3.12 2.52,11.08 0,2.52 -1.28,7.84 l -0.28,1.16 -9.32,-0.04 0.56,-2.12 q 1.08,-4.08 1.08,-7.64 z"
         id="path909" />
      <path
         d="m 500.42211,159.92718 q -5.96,-3.68 -5.96,-10.72 0,-3.44 2.16,-6.6 0.28,-0.4 0.88,-1.12 3.56,-4.2 9.36,-4.2 4.68,0 7.96,3.08 3.12,2.92 4,7.6 0.16,0.84 0.16,1.88 0,0.16 -0.04,0.52 -0.04,0.36 -0.04,0.52 -0.24,2.52 -1.72,5.04 -0.52,0.88 -1.48,1.92 -2.8,3 -6.52,3.68 -1.32,0.24 -2.48,0.24 -3.28,0 -6.28,-1.84 z m 3.48,-10.12 q 0,1.2 0.84,2.08 0.88,0.84 2.08,0.84 1.28,0 2,-0.84 0.72,-0.84 0.72,-2.12 v -0.28 q 0,-1 -0.56,-1.84 -0.52,-0.88 -1.44,-1.12 l -0.64,-0.16 q -1.44,0 -2.24,1 -0.76,0.96 -0.76,2.44 z"
         id="path911" />
      <path
         d="m 530.55211,161.20718 h -9.2 v -28.8 h 9.2 z"
         id="path913" />
      <path
         d="m 541.62148,137.92718 q 2.12,-0.6 4.12,-0.6 v -4.92 h 9.2 v 28.8 h -10.76 q -0.64,0 -2.32,-0.44 -5,-1.32 -7.32,-5.4 -1.64,-2.88 -1.64,-6.04 0,-3.04 1.32,-5.48 2.44,-4.52 7.4,-5.92 z m 4.12,7.96 q -1.36,0.2 -2.2,1.32 -0.8,1.08 -0.8,2.52 0,0.68 0.36,1.44 1.04,2.12 2.64,1.88 z"
         id="path915" />
      <path
         d="m 569.91648,137.40718 q 3.68,0 6.2,1.6 v 6.88 l -1.56,-0.44 q -1.56,-0.44 -2.64,-0.44 h -0.48 q -1.8,0 -3.08,0.68 -0.8,0.52 -1.28,1.12 h 6.48 v 5.16 h -6.36 q 1.84,2.08 4.96,2.08 2.12,0 3.96,-0.92 v 7.36 l -1.48,0.56 q -1.68,0.64 -4.24,0.64 h -1.32 q -0.12,-0.04 -0.8,-0.16 -8.24,-1.44 -10.48,-8.44 -0.48,-1.48 -0.48,-2.64 0,-6.4 4.04,-9.96 2.48,-2.2 6.76,-2.92 0.96,-0.16 1.8,-0.16 z"
         id="path917" />
      <path
         d="m 590.69586,150.20718 q 0,-2.84 -1.36,-4.04 v -8.28 q 0.28,-0.04 0.8,-0.04 5.08,0 7.24,4.52 0.96,2 0.96,4.16 0,1.72 -0.44,3.04 l -0.4,1.2 -6.88,0.16 z m -2.8,11 h -9.2 v -23.32 h 9.2 z"
         id="path919" />
      <path
         d="m 611.86961,137.40718 q 3.68,0 6.2,1.6 v 6.88 l -1.56,-0.44 q -1.56,-0.44 -2.64,-0.44 h -0.48 q -1.8,0 -3.08,0.68 -0.8,0.52 -1.28,1.12 h 6.48 v 5.16 h -6.36 q 1.84,2.08 4.96,2.08 2.12,0 3.96,-0.92 v 7.36 l -1.48,0.56 q -1.68,0.64 -4.24,0.64 h -1.32 q -0.12,-0.04 -0.8,-0.16 -8.24,-1.44 -10.48,-8.44 -0.48,-1.48 -0.48,-2.64 0,-6.4 4.04,-9.96 2.48,-2.2 6.76,-2.92 0.96,-0.16 1.8,-0.16 z"
         id="path921" />
      <path
         d="m 629.00898,137.88718 h 9.56 v 7.48 l -7.84,0.08 5.88,3.28 q 1.24,0.68 2,2.08 0.76,1.4 0.76,2.88 0,3.28 -3.04,5.64 -1.72,1.32 -4.24,1.72 -1,0.16 -1.64,0.16 h -9.64 v -7.44 h 7.92 l -5.92,-3.32 q -2.56,-1.44 -2.56,-4.88 0,-3.72 2.56,-5.8 2.36,-1.88 6.2,-1.88 z"
         id="path923" />
      <path
         d="m 673.57773,132.24718 0.84,0.12 v 8.16 q -1.84,-0.2 -3.04,-0.2 -2,0 -2.84,0.12 -1.4,0.2 -2.56,1 -2.56,1.72 -2.56,5.76 0,3.36 3.28,5 2.56,1.28 6.28,1.28 l 1.52,-0.2 v 8.44 l -1.48,0.08 h -1.36 q -3.8,0 -6.12,-0.44 -3.16,-0.6 -5.72,-2.2 -5.28,-3.32 -6.56,-9.52 -0.28,-1.36 -0.28,-2.76 0,-0.68 0.2,-2.16 0.68,-4.96 4.24,-8.32 4.72,-4.44 12.44,-4.44 1.76,0 3.72,0.28 z"
         id="path925" />
      <path
         d="m 683.45336,146.28718 q 1.08,-0.2 2.08,-0.2 1.76,0 3.44,0.72 v 4.76 q -0.28,-0.08 -0.92,0.12 -0.6,0.16 -0.84,0.32 -0.36,0.28 -0.36,0.72 0,0.88 0.92,1.04 0.48,0.08 0.92,0.08 1.72,0 1.72,-1.2 v -6.12 q 0,-2.44 -4.28,-2.44 -2.96,0 -6.64,1.08 v -6.4 q 3.76,-1.48 8.12,-1.48 3.16,0 5.84,0.92 3.28,1.12 4.76,3.32 0.8,1.2 1.24,3.32 0.2,0.96 0.2,1.72 v 14.64 h -14.32 q -0.64,0 -1.48,-0.16 -5.8,-1.12 -7.08,-5.88 -0.24,-0.88 -0.24,-1.72 0.04,-0.36 0.04,-0.56 0,-5.32 6.88,-6.6 z"
         id="path927" />
      <path
         d="m 714.68398,137.40718 q 2.16,0 3.84,0.84 v 7.56 l -1.4,-0.24 q -5.36,0 -5.36,3.92 0,3.72 5.96,3.72 l 1,-0.12 v 7.68 q -1.48,0.88 -3.56,0.88 h -0.96 q -0.16,-0.04 -1.08,-0.16 -5.48,-0.76 -8.76,-4.88 -2.44,-3.08 -2.44,-7.4 0,-1.08 0.4,-2.56 1.2,-4.52 4.88,-7 3.28,-2.24 7.48,-2.24 z"
         id="path929" />
      <path
         d="m 721.35211,161.20718 v -28.8 h 9.2 v 28.8 z m 13.04,-9.76 q 0,-2.12 -0.36,-3.16 -0.52,-1.52 -2.04,-2.32 v -8.2 q 0.96,-0.28 2.04,-0.28 4.12,0 7.08,3.68 2.52,3.12 2.52,11.08 0,2.52 -1.28,7.84 l -0.28,1.16 -9.32,-0.04 0.56,-2.12 q 1.08,-4.08 1.08,-7.64 z"
         id="path931" />
      <path
         d="m 758.35398,137.40718 q 3.68,0 6.2,1.6 v 6.88 l -1.56,-0.44 q -1.56,-0.44 -2.64,-0.44 h -0.48 q -1.8,0 -3.08,0.68 -0.8,0.52 -1.28,1.12 h 6.48 v 5.16 h -6.36 q 1.84,2.08 4.96,2.08 2.12,0 3.96,-0.92 v 7.36 l -1.48,0.56 q -1.68,0.64 -4.24,0.64 h -1.32 q -0.12,-0.04 -0.8,-0.16 -8.24,-1.44 -10.48,-8.44 -0.48,-1.48 -0.48,-2.64 0,-6.4 4.04,-9.96 2.48,-2.2 6.76,-2.92 0.96,-0.16 1.8,-0.16 z"
         id="path933" />
      <path
         d="m 776.33336,161.20718 h -9.2 v -28.8 h 9.2 z"
         id="path935" />
      <path
         d="m 791.32273,137.40718 q 3.68,0 6.2,1.6 v 6.88 l -1.56,-0.44 q -1.56,-0.44 -2.64,-0.44 h -0.48 q -1.8,0 -3.08,0.68 -0.8,0.52 -1.28,1.12 h 6.48 v 5.16 h -6.36 q 1.84,2.08 4.96,2.08 2.12,0 3.96,-0.92 v 7.36 l -1.48,0.56 q -1.68,0.64 -4.24,0.64 h -1.32 q -0.12,-0.04 -0.8,-0.16 -8.24,-1.44 -10.48,-8.44 -0.48,-1.48 -0.48,-2.64 0,-6.4 4.04,-9.96 2.48,-2.2 6.76,-2.92 0.96,-0.16 1.8,-0.16 z"
         id="path937" />
      <path
         d="m 809.30211,161.20718 h -9.2 v -28.8 h 9.2 v 10.56 q 0.96,-0.92 2.08,-3.04 0,-0.04 1,-2.04 h 10.16 q -2.2,4.56 -6,8 2.52,3.88 4.92,12.36 0.28,0.96 0.8,2.96 h -9.4 q -0.44,-3.16 -3.56,-9 z"
         id="path939" />
      <path
         d="m 836.08836,137.40718 q 3.68,0 6.2,1.6 v 6.88 l -1.56,-0.44 q -1.56,-0.44 -2.64,-0.44 h -0.48 q -1.8,0 -3.08,0.68 -0.8,0.52 -1.28,1.12 h 6.48 v 5.16 h -6.36 q 1.84,2.08 4.96,2.08 2.12,0 3.96,-0.92 v 7.36 l -1.48,0.56 q -1.68,0.64 -4.24,0.64 h -1.32 q -0.12,-0.04 -0.8,-0.16 -8.24,-1.44 -10.48,-8.44 -0.48,-1.48 -0.48,-2.64 0,-6.4 4.04,-9.96 2.48,-2.2 6.76,-2.92 0.96,-0.16 1.8,-0.16 z"
         id="path941" />
      <path
         d="m 856.86773,150.20718 q 0,-2.84 -1.36,-4.04 v -8.28 q 0.28,-0.04 0.8,-0.04 5.08,0 7.24,4.52 0.96,2 0.96,4.16 0,1.72 -0.44,3.04 l -0.4,1.2 -6.88,0.16 z m -2.8,11 h -9.2 v -23.32 h 9.2 z"
         id="path943" />
    </g>
  </g>
</svg>
